<?xml version="1.0" encoding="utf-8"?>
<!-- Generator: Adobe Illustrator 23.0.1, SVG Export Plug-In . SVG Version: 6.00 Build 0)  -->
<svg version="1.1" id="Livello_1" xmlns="http://www.w3.org/2000/svg" xmlns:xlink="http://www.w3.org/1999/xlink" x="0px" y="0px"
	 viewBox="0 0 692.6 250" enable-background="new 0 0 692.6 250" xml:space="preserve">
<g>
	<path fill="#20BAD5" d="M223.2,237.8c0.7,4.9-2.5,9.3-7.1,10.8c-8.9,1.5-18.2,1.5-27,0c-4.9-1.5-7.8-5.9-7.1-10.8V81
		c-0.7-4.9,2.5-9.3,7.1-10.8c8.9-1.5,18.2-1.5,27,0c4.9,1.2,7.8,5.9,7.1,10.8V237.8z M223.2,30.9c0.7,4.9-2.2,9.6-7.1,10.8
		c-8.9,1.5-18.2,1.5-27,0c-4.9-1.2-7.8-5.9-7.1-10.8V11.9c-0.7-4.9,2.5-9.3,7.1-10.8c8.9-1.5,18.2-1.5,27,0
		c4.9,1.2,7.8,5.9,7.1,10.8V30.9z"/>
	<path fill="#20BAD5" d="M157.9,219.9c-17.4,18.6-41.9,29.2-67.5,29.7C41.9,251.2,1.5,212.9,0,164.4c0-1.5,0-3.4,0-4.9
		c-0.3-24.1,8.6-47.1,24.8-64.5c17.7-17.4,42.2-26.7,67-25.7h42.2c6.8,0,9.6,2.5,10.8,6.2c1.2,4.1,1.5,7.8,1.2,11.8
		c0.3,4.1,0,8.1-1.2,11.8c-1.5,4.4-5.9,7.4-10.8,6.8H91.9c-13.3-0.7-26.3,4.4-36,13.7C46.3,130.5,40.7,144.5,41,159
		c0,29.2,20.1,52.7,49,52.7c16.4-0.3,32.2-7.1,43.7-18.6c3-3.4,8.1-4.4,12.2-2.5c3.4,2.2,5.9,4.9,8.1,7.8c2.5,3,4.9,5.9,6.2,9.6
		C162.4,212.5,161.2,217.1,157.9,219.9z"/>
	<path fill="#20BAD5" d="M336.7,69c-1.5,0-3,0-4.4,0c-48.6,1.5-86.4,41.9-84.9,90.2c0,55.5,34.8,90.2,95.2,90.2h54.9
		c6.8,0,9.6-2.5,10.8-6.2s1.5-7.4,1.5-11.5c0-3.7-0.3-7.8-1.5-11.5c-1.5-4.4-5.9-7.4-10.8-6.8h-54.9c-25.7,0-50-12.7-51.8-39h115.7
		V174c0.7,0,1.2,0,1.9,0c8.9-0.7,15.5-8.9,14.9-18.2c0-0.3,0-1.2,0-1.5C422.6,107.3,384.1,68.7,336.7,69z M290.2,142.8
		c3.7-22.6,23-39,45.6-38.2c22.6-1.2,41.9,15.5,44.1,38.2H290.2z"/>
	<path fill="#20BAD5" d="M488.3,237.8c0.7,4.9-2.5,9.3-7.1,10.8c-8.9,1.5-18.2,1.5-27,0c-4.9-1.2-7.8-5.9-7.1-10.8V12.3
		c-0.7-4.9,2.5-9.3,7.1-10.8c8.9-1.5,18.2-1.5,27,0c4.9,1.5,7.8,5.9,7.1,10.8V237.8z"/>
	<path fill="#20BAD5" d="M692.6,159.5c0-49.6-40.4-90.2-90.2-90.2c-50,0-90.5,40.4-90.5,90.2c0,50,40.4,90.5,90.2,90.5
		c1.9,0,3.4,0,4.9-0.3C655.4,248.5,694.1,208.1,692.6,159.5z M602.1,211.8c-28.9,0-49-23.8-49-52.7s20.1-52.7,49-52.7
		c28.9,0,49,23.8,49,52.7S630.9,211.8,602.1,211.8z"/>
</g>
</svg>
