<?xml version="1.0" encoding="utf-8"?>
<!-- Generator: Adobe Illustrator 22.1.0, SVG Export Plug-In . SVG Version: 6.00 Build 0)  -->
<svg version="1.1" id="Livello_1" xmlns="http://www.w3.org/2000/svg" xmlns:xlink="http://www.w3.org/1999/xlink" x="0px" y="0px"
	 viewBox="0 0 1134.5 493" style="enable-background:new 0 0 1134.5 493;" xml:space="preserve">
<style type="text/css">
	.st0{fill:#F1B538;}
	.st1{fill:#2E323B;}
</style>
<g>
	<path class="st0" d="M1134.5,0v416.1c0,42.5-34.4,76.9-76.9,76.9H76.9C34.5,493,0,458.6,0,416.1V76.9C0,34.4,34.5,0,76.9,0"/>
	<g>
		<path class="st1" d="M265.8,234.4L265.8,234.4c-14.3,0.7-21.4,11.3-25.1,38.8h-0.1l-0.9,5.7c12-0.6,18.8-0.6,26.2-0.6
			c7.2,0,10.6,0,18.1,0.3c0,4.5-1.4,13-2.1,18.4l-3.1,21.8c-7.9,3.5-16.7,5.5-26.5,5.5c-32.8,0-55.9-20.5-55.9-61.4
			c0-42.3,28-81.8,73-81.8c23.8,0,45.6,8.9,60.3,20.4l23.6-50.4c-21.1-15-49.7-24.9-82.2-24.9c-86.9,0-140.8,68.8-140.8,140.8
			c0,67.8,47.5,110.8,111.5,110.8c43.6,0,70.6-13.3,90.7-26.2l4.1-37.2c2.7-22.5,9.8-67.9,13.6-81.1c-23.2,1-33.7,1.4-60.7,1.4
			C280.8,234.6,273.9,234.6,265.8,234.4"/>
		<path class="st1" d="M434.9,256c5.1-34.8,7-44.3,9-53.1c-14,1.7-29.6,2.8-45.2,3.6c-13.4,1.2-19.2,11.8-22.8,38.3l-0.5,2.7
			l-13.3,82.9c-6.2,40.1,6.2,46.7,33,46.7c14,0,29.7-3.1,42.7-7.8l4.7-35.8l-11.2,2.4c-5.8,0-7.5-2.7-5.8-14L434.9,256z
			 M426.6,115.3c-21.8,0-41.2,16.3-41.2,37.4c0,16.1,13.6,26.3,31.3,26.3c22.1,0,41.2-16.4,41.2-37.5
			C458,125.1,444.3,115.3,426.6,115.3z"/>
		<path class="st1" d="M634,202.9c-13.8,1.7-17.4,2.1-32.8,2.8c-6.5,0.5-11.2,3.4-14.7,9h-0.1c-8.9-8.8-24.8-15-40.6-15
			c-53.5,0-94.7,63.4-94.7,117.7c0,36.8,14.6,60.3,45.6,60.3c20.5,0,45.3-15.1,61-49.8c-1,4.1-1.3,8.2-1.7,11.6
			c-2.7,29.3,8.8,37.5,33.1,37.5c13.9,0,27.2-3.1,39.8-7.8l4.8-35.8l-11.3,2.4c-5.5,0-7.5-2.7-5.8-14l17.7-118.6l0.1-0.3v-0.4
			L634,202.9z M562.8,271.1c-5.1,34.7-21.5,57.3-35.1,57.3c-8.9,0-14.3-6.9-14.3-22.9c0-31,17.8-61.3,37.8-61.3
			c6.8,0,11.3,2,14.7,4.8L562.8,271.1z"/>
		<path class="st1" d="M733.2,174.6c5-34.8,6.8-44.6,8.8-53.5c-14,1.7-29.5,3.2-45,3.9c-13.3,1.3-20.1,12.1-23.7,38.7l-0.4,2.7
			l-24.6,164c-5.8,37.4,3.4,46.7,32.1,46.7c14,0,30.3-3.1,43.3-7.9l4.8-35.8l-10.9,2.4c-5.8,0-7.9-2.7-6.1-14L733.2,174.6z"/>
		<path class="st1" d="M827.7,174.6c5.1-34.8,6.9-44.6,9-53.5c-14.1,1.7-29.5,3.2-45.1,3.9c-13.4,1.3-20.1,12.1-23.7,38.7l-0.5,2.7
			l-24.5,164c-5.8,37.4,3.4,46.7,32,46.7c14,0,30.3-3.1,43.3-7.9l4.8-35.8l-11,2.4c-5.8,0-7.8-2.7-6.1-14L827.7,174.6z"/>
		<path class="st1" d="M929,199.8c-55.2,0-97.5,47-97.5,103.3c0,42.3,25.5,74.7,75.3,74.7c55.6,0,97.5-47.1,97.5-103.7
			C1004.3,232.2,979.5,199.8,929,199.8z M912.9,332.5c-12.2,0-19.4-10.6-19.4-31.4c0-31,13.3-55.9,29.6-55.9
			c11.9,0,19.1,10.2,19.1,31.3C942.3,307.2,929.4,332.5,912.9,332.5z"/>
	</g>
</g>
</svg>
