<?xml version="1.0" encoding="utf-8"?>
<!-- Generator: Adobe Illustrator 24.0.0, SVG Export Plug-In . SVG Version: 6.00 Build 0)  -->
<svg version="1.1" id="Livello_1" xmlns="http://www.w3.org/2000/svg" xmlns:xlink="http://www.w3.org/1999/xlink" x="0px" y="0px"
	 viewBox="0 0 298.7 216.1" style="enable-background:new 0 0 298.7 216.1;" xml:space="preserve">
<style type="text/css">
	.st0{fill:#E5004B;}
</style>
<path class="st0" d="M296.4,139.8c-2.6-1.2-4.7,0.5-5.9,2.4c-1.3,1.9-23.1,38.1-39,36.6c-8.8-0.9-10.9-30.8-10.1-35.9
	c3-5.6,60.1-120.7,32.9-141.1c-2.9-2.1-9-2.7-13.6,0.3c-22.7,14.3-35.2,70.4-36.8,92.9c-0.2,3.3-0.7,6.7-0.8,11.2
	c-0.9-0.3-5.5-1.9-12-0.9c-12.5,1.8-22,9.1-28.5,16.6c-15.3,3.4-17.4-15.5-19.9-15.5l0,0c0,0-127,0-127,0l0,33.7l68.4-0.1
	l-34.1,59.3l29.3,16.8l57.6-99.8c1.5,4,6.1,13,17.4,17.7c-0.3,0.7-0.6,1.3-0.9,1.9c-4,8.8-6.6,19.9-6.3,29.4
	c0.4,19.2,9.8,24.5,20.8,21c17-5.3,35.5-27.4,36.8-28.8c0.3,1.9,0.8,4.9,1.8,8.9c3.8,14.9,11.5,24,21.4,24.8
	c17.3,1.4,34.7-17.3,49.4-43.2C298.4,145.9,300.1,141.5,296.4,139.8z M216,149.6c-3.4,3.7-23.3,28.8-32.4,25
	c-5.6-2.3-4.6-24.4,14.8-43.2c7.2-7,17.2-12.1,23.9-10.6c0,4.7,0.3,15.8,0.5,20.1C221.4,142.9,219.3,145.9,216,149.6z M267.5,16
	c14.5,2-13.1,78.5-27.5,107.4C238.8,103.7,250.4,13.7,267.5,16z M41.7,157.9l-15.5,26.8l0-3.8l-20.8,0l0-22.9l-4.8,0l0,27.2l25.6,0
	h0l4.4,0c0,0,1.5-2.6,3.4-6l19.7,0c1.9,3.4,3.4,5.9,3.4,5.9l4.8,0l-15.9-27.2L41.7,157.9z M36.4,174.9c3.1-5.4,6.3-11.2,6.7-11.9
	l0.7-1.2l0.7,1.2c0.4,0.8,3.7,6.5,6.8,11.9L36.4,174.9z"/>
</svg>
