<?xml version="1.0" encoding="utf-8"?>
<!-- Generator: Adobe Illustrator 23.0.1, SVG Export Plug-In . SVG Version: 6.00 Build 0)  -->
<svg version="1.1" id="Livello_1" xmlns="http://www.w3.org/2000/svg" xmlns:xlink="http://www.w3.org/1999/xlink" x="0px" y="0px"
	 viewBox="0 0 1766.8 500" enable-background="new 0 0 1766.8 500" xml:space="preserve">
<g id="Layer_2">
	<g>
		<g>
			<path fill="#FF0000" d="M1695.7,428.9c96.4-96.4,94.5-254.6-4.2-353.6c-98.7-98.7-257.2-100.6-353.6-4.2
				c-96.4,96.4-94.5,254.6,4.2,353.6C1440.7,523.4,1599.2,525.3,1695.7,428.9z"/>
			<polygon fill-rule="evenodd" clip-rule="evenodd" points="1270.7,207.1 1472.6,133.5 1674.8,59.9 1637.5,271.7 1600.2,483.5 
				1524.6,228.3 			"/>
		</g>
		<g fill="#fff">
			<path fill-rule="evenodd" clip-rule="evenodd" d="M660,434.7c-8.9,0-17-1.6-24.7-4.9c-7.3-3.2-13.4-8.1-17.8-13.8
				c-4.9-6.1-8.1-13-10.1-20.7c-2-7.7-2-16.2-0.4-25.1c1.6-8.9,4.9-17.4,9.3-25.1c4.9-7.7,10.9-14.6,17.4-20.3
				c6.9-6.1,14.6-10.5,23.1-13.8c8.5-3.2,17-4.9,25.9-4.9c17.8,0,31.6,6.5,42.1,19l27.1-23.1c-7.3-8.9-16.6-15.8-27.1-21.1
				c-10.5-4.9-22.7-7.7-36.1-7.7s-26.3,2.4-39.3,7.7c-12.6,4.9-24.3,12.2-34.8,21.1c-10.1,8.9-19,19-26.3,31.2
				c-6.9,11.8-11.8,23.9-14.2,36.9H436.4l2.8-15.8l8.5-48.6h96.8l5.7-32.4H421l-17,96.8h-64.8c7.3-9.7,12.6-20.7,14.6-32
				c3.2-17.8-0.4-32.8-10.9-45.4c-10.5-12.6-24.3-19-42.1-19h-96.4l-17,96.8H49.4l11.3-64.4h96.8l5.7-32.4H34L0,467.9h32l11.3-64.4
				h137.8l-11.3,64.4h32l11.3-64.4h54.7l25.9,64.4H331l-25.5-64.4h93.2l-11.3,64.4h129.2l5.7-32.4h-96.8l5.7-32h143.4
				c0.4,1.6,0.4,3.6,1.2,5.3c3.2,11.7,8.5,21.9,15.4,30.8c7.3,8.9,16.6,15.8,27.1,21.1c10.9,4.9,23.1,7.7,36.5,7.7
				c13.4,0,26.3-2.4,38.9-7.7c12.6-4.9,24.3-12.2,34.8-21.1l-19-22.7C694.1,428.6,677.9,434.7,660,434.7z M230.5,305.4h64.8
				c8.9,0,15.8,3.2,21.1,9.3c5.3,6.5,6.9,13.8,5.7,22.7c-1.6,8.9-6.1,16.6-13.4,23.1c-6.5,5.7-13.8,8.5-21.5,9.3h-67.7L230.5,305.4z
				"/>
			<path fill-rule="evenodd" clip-rule="evenodd" d="M836.3,434.7c-8.9,0-17-1.6-24.7-4.9c-7.3-3.2-13.4-8.1-17.8-13.8
				c-4.9-6.1-8.1-13-10.1-20.7c-2-7.7-2-16.2-0.4-25.1c1.6-8.9,4.9-17.4,9.3-25.1c4.9-7.7,10.9-14.6,17.4-20.3
				c6.9-6.1,14.6-10.5,23.1-13.8s17-4.9,25.9-4.9c17.8,0,31.6,6.5,42.1,19l27.1-23.1c-7.3-8.9-16.6-15.8-27.1-21.1
				c-10.5-4.9-22.7-7.7-36.1-7.7s-26.3,2.4-39.3,7.7c-12.6,4.9-24.3,12.2-34.8,21.1c-10.1,8.9-19,19-26.3,31.2
				c-7.3,11.8-11.7,24.3-14.2,37.3c-2.4,13.4-2,25.9,0.8,37.7c3.2,11.8,8.5,21.9,15.4,30.8c7.3,8.9,16.6,15.8,27.1,21.1
				c10.9,4.9,23.1,7.7,36.5,7.7c13.4,0,26.3-2.4,38.9-7.7c12.6-4.9,24.3-12.2,34.8-21.1l-19-22.7
				C870.3,428.6,854.1,434.7,836.3,434.7z"/>
			<path fill-rule="evenodd" clip-rule="evenodd" d="M997.5,467.1h36.1l22.3-32.4h89.1l10.5,32.4h36.1L1128.8,273L997.5,467.1z
				 M1077.8,402.7l38.5-57.1l18.6,57.1H1077.8z"/>
			<path fill-rule="evenodd" clip-rule="evenodd" d="M386.5,160h54.7l25.9,64.4h37.3l-27.6-69.7c12.6-4.9,23.1-12.6,32.4-23.1
				c9.7-10.9,15.4-23.1,17.8-36.5c3.2-17.8-0.4-32.8-10.9-45.4c-10.5-12.6-24.3-19-42.1-19h-96.8l-34,194.1h32L386.5,160z
				 M403.6,62.7h64.8c8.9,0,15.8,3.2,21.1,9.3c5.3,6.5,6.9,13.8,5.7,22.7c-1.6,8.9-6.1,16.6-13.4,23.1c-7.3,6.5-15.4,9.3-24.3,9.3
				l-64.8-0.4L403.6,62.7z"/>
			<path fill-rule="evenodd" clip-rule="evenodd" d="M588.7,192h89.1l10.5,32.4h36.1L661.6,30.3L530.4,224.4h36.1L588.7,192z
				 M648.7,102.8l18.6,57.1h-57.1L648.7,102.8z"/>
			<path fill-rule="evenodd" clip-rule="evenodd" d="M853.3,216.7c13-5.3,24.3-12.2,34.8-21.1c10.5-8.9,19-19.4,26.3-31.2
				c7.3-11.7,12.2-24.3,14.6-37.3c2.4-13.4,2-25.5-1.2-37.3c-2.8-11.7-8.1-21.9-15.4-30.8c-7.3-8.9-16.2-15.8-27.1-21.1
				c-10.9-5.3-22.7-7.7-36.1-7.7h-64.4l-34,194.1h64.4C827.8,224.4,840.7,221.9,853.3,216.7z M810.3,62.7h32.4
				c8.9,0,16.6,1.6,23.9,4.9c7.3,3.2,13.4,8.1,18.2,14.2s8.5,13,10.1,20.7c2,7.7,2,16.2,0.8,24.7c-1.6,8.9-4.9,17-9.3,24.7
				c-4.9,7.7-10.5,14.6-17.4,20.7c-6.9,6.1-14.6,10.5-22.7,13.8c-8.5,3.2-17,4.9-25.9,4.9h-32.4L810.3,62.7z"/>
			<polygon fill-rule="evenodd" clip-rule="evenodd" points="1033.6,30.3 1001.6,30.3 954.6,297.3 954.6,297.3 925,467.1 957,467.1 
				991.1,273 991.1,273 			"/>
			<path fill-rule="evenodd" clip-rule="evenodd" d="M1235,59.1c-15.4-19-36.5-28.4-63.6-28.4s-51.5,9.3-73.3,28.4
				c-22.3,19-36.1,41.7-40.5,68.5c-4.9,26.7,0.8,49.8,16.6,68.5c15.4,19,36.5,28.4,63.6,28.4c26.7,0,51.5-9.3,73.3-28.4
				c22.3-18.6,36.1-41.3,40.9-68.5C1256.4,100.8,1250.8,78.1,1235,59.1z M1218.8,127.5c-3.2,17.8-12.2,32.8-27.1,45.8
				c-15,12.6-31.2,18.6-49,18.6c-17.8,0-32-6.1-42.5-18.6c-10.1-13-13.8-28-10.5-45.8c3.2-17.8,12.2-32.8,26.7-45.4
				c15-12.6,31.6-19,49-19s31.6,6.5,42.1,19C1218.4,94.3,1222,109.7,1218.8,127.5z"/>
		</g>
	</g>
</g>
</svg>
