<?xml version="1.0" encoding="utf-8"?>
<!-- Generator: Adobe Illustrator 27.0.0, SVG Export Plug-In . SVG Version: 6.00 Build 0)  -->
<svg version="1.1" id="Layer_1" xmlns="http://www.w3.org/2000/svg" xmlns:xlink="http://www.w3.org/1999/xlink" x="0px" y="0px"
	 viewBox="0 0 283.5 283.5" style="enable-background:new 0 0 283.5 283.5;" xml:space="preserve">
<style type="text/css">
	.st0{fill:#FF0000;}
	.st1{fill-rule:evenodd;clip-rule:evenodd;}
	.st2{fill:#FFFFFF;}
</style>
<g>
	<g>
		<g>
			<g>
				<g>
					<g>
						<path class="st0" d="M-0.1,141.7C-0.1,63.5,63.4,0,141.6,0s141.7,63.5,141.7,141.7s-63.5,141.7-141.7,141.7
							S-0.1,220-0.1,141.7"/>
					</g>
				</g>
			</g>
		</g>
	</g>
</g>
<g>
	<g>
		<g>
			<g>
				<polygon class="st1" points="51.7,234.4 231.5,130.6 231.4,234.4 				"/>
			</g>
		</g>
	</g>
</g>
<g>
	<g>
		<g>
			<g>
				<g>
					<g>
						<polygon class="st1" points="231.4,47.3 51.7,151 51.7,47.3 						"/>
					</g>
				</g>
			</g>
		</g>
	</g>
</g>
<g>
	<g>
		<g>
			<g>
				<g>
					<g>
						<polygon class="st2" points="190.1,83 137.1,113.6 137.1,113.6 99.1,135.6 99.1,183.3 66.1,202.3 91.8,153.2 77.6,161.6 
							51.6,211 51.6,222.9 99.1,195.5 99.1,195.5 99.4,195.4 100.2,194.9 100.2,194.9 151.9,164.9 151.9,152.6 110.2,176.9 
							110.2,165.3 138.1,148.9 138.1,136.7 110.2,153.1 110.2,141.3 137.1,125.7 137.1,125.7 161.3,111.8 161.3,159.6 172.6,153.2 
							172.6,105.2 190.1,95.1 						"/>
					</g>
				</g>
			</g>
		</g>
	</g>
</g>
<g>
	<g>
		<g>
			<g>
				<g>
					<g>
						<path class="st2" d="M204.9,74.4l-25.7,74.9l12.2-7l4-11.6l18.7-10.8l4,6.9l12.4-7.1L204.9,74.4z M200.7,115.4l4.2-12.2
							l4.1,7.4L200.7,115.4z"/>
					</g>
				</g>
			</g>
		</g>
	</g>
</g>
<g>
	<g>
		<g>
			<g>
				<g>
					<g>
						<path class="st2" d="M54.3,168.3l0.8-0.5l1.8,4l2.7-1.6l-2-4.4c0.6-0.7,0.9-1.6,1.1-2.2c0.2-0.7,0.3-1.5,0.3-2
							c0-0.2,0-0.6-0.1-0.8c-0.1-0.3-0.1-0.6-0.2-0.9c-0.1-0.3-0.3-0.6-0.6-0.7c-0.2-0.2-0.5-0.2-0.7-0.3c-0.2,0-0.3-0.1-0.6-0.1
							c-0.1,0-0.1,0-0.1,0c-0.1,0-0.1,0-0.2,0.1c-0.1,0-0.2,0.1-0.2,0.1c-0.1,0-0.2,0.1-0.3,0.1s-0.2,0.1-0.2,0.1l-3.9,2.3V175
							l2.6-1.5L54.3,168.3L54.3,168.3z M55.8,164.2c-0.1,0.1-0.1,0.1-0.2,0.1c-0.1,0.1-0.1,0.1-0.1,0.1l-1.2,0.7v-2.2l1.5-0.9h0.1
							H56c0.1-0.1,0.1-0.1,0.1-0.1h0.1c0.2,0,0.2,0.1,0.2,0.1c0.1,0.1,0.1,0.3,0.1,0.6c0,0.2-0.1,0.5-0.1,0.7
							C56.1,163.6,56,164,55.8,164.2"/>
					</g>
				</g>
			</g>
		</g>
	</g>
</g>
<g>
	<g>
		<g>
			<g>
				<g>
					<g>
						<path class="st2" d="M63.4,166l3.3-1.9l0.7,1.6l2.7-1.6l-5.2-10.8l-5.2,16.8l2.9-1.7L63.4,166z M63.9,162.8l0.9-2.9l0.9,1.8
							L63.9,162.8z"/>
					</g>
				</g>
			</g>
		</g>
	</g>
</g>
<g>
	<g>
		<g>
			<g>
				<g>
					<g>
						<path class="st2" d="M74.9,161.1c0.1-0.1,0.2-0.2,0.3-0.2c0.1-0.1,0.2-0.2,0.3-0.2c0.1-0.1,0.2-0.1,0.2-0.2
							c0.7-0.7,1.2-1.4,1.7-2c0.5-0.7,0.9-1.5,1.2-2.2c0.3-0.7,0.6-1.5,0.7-2.2s0.2-1.4,0.2-2s-0.1-1-0.1-1.4
							c-0.1-0.5-0.2-0.8-0.5-1.2c-0.1-0.1-0.1-0.2-0.1-0.2c-0.1-0.1-0.1-0.1-0.1-0.2c-0.1-0.2-0.5-0.6-0.6-0.7
							c-0.2-0.2-0.5-0.3-0.7-0.5c-0.2-0.1-0.6-0.2-0.8-0.2c-0.2-0.1-0.5-0.1-0.8,0c-0.1,0-0.1,0-0.2,0.1c-0.1,0-0.2,0.1-0.5,0.1
							c-0.1,0.1-0.3,0.1-0.5,0.1c-0.2,0.1-0.3,0.1-0.5,0.1l-4,2.4V164l4.2-2.5C74.7,161.3,74.8,161.2,74.9,161.1 M74.8,157.9
							c-0.1,0.1-0.1,0.1-0.2,0.2c-0.1,0.1-0.2,0.1-0.2,0.2L73,159v-7.1l1.6-0.9c0.1,0,0.1-0.1,0.1-0.1l0.2-0.1c0.1,0,0.1,0,0.2,0
							l0.2-0.1c0.2,0,0.6,0,0.7,0.1c0.2,0.1,0.5,0.2,0.6,0.5c0.1,0.2,0.2,0.5,0.3,0.7c0.1,0.2,0.1,0.6,0.1,0.9
							c0,0.3-0.1,0.7-0.1,1.1c-0.1,0.5-0.2,0.8-0.3,1.2c-0.2,0.5-0.5,0.9-0.7,1.2C75.5,157.2,75.2,157.6,74.8,157.9"/>
					</g>
				</g>
			</g>
		</g>
	</g>
</g>
<g>
	<g>
		<g>
			<g>
				<g>
					<g>
						<polygon class="st2" points="82.5,143.1 80.1,144.6 80.1,157.9 82.5,156.5 						"/>
					</g>
				</g>
			</g>
		</g>
	</g>
</g>
<g>
	<g>
		<g>
			<g>
				<g>
					<g>
						<path class="st2" d="M84.7,153.5c0.5,0.3,1,0.5,1.6,0.5c0.1,0,0.1,0,0.1,0c0.7,0,1.4-0.2,2.2-0.7c0.7-0.5,1.5-1,2-1.7
							c0.7-0.7,1.2-1.6,1.7-2.4c0.5-0.9,0.9-1.8,1.1-2.7s0.5-1.9,0.5-2.8s-0.1-1.7-0.5-2.4c-0.2-0.7-0.7-1.2-1.2-1.6
							c-0.5-0.3-1-0.5-1.6-0.5c-0.1,0-0.1,0-0.1,0c-0.7,0-1.4,0.2-2.2,0.7c-0.7,0.5-1.5,1-2,1.7c-0.7,0.7-1.2,1.6-1.7,2.4
							c-0.5,0.9-0.9,1.8-1.1,2.7s-0.5,1.8-0.5,2.8c0,0.9,0.1,1.7,0.5,2.4C83.7,152.6,84.1,153.2,84.7,153.5 M91.2,143.9
							c0.1,0.2,0.1,0.6,0.1,0.9c0,0.6-0.1,1-0.2,1.6s-0.5,1-0.7,1.6c-0.2,0.5-0.6,0.9-0.9,1.4s-0.7,0.7-1.1,0.9
							c-0.5,0.2-0.7,0.3-1,0.3h-0.1c-0.3,0-0.6-0.1-0.8-0.2c-0.2-0.1-0.5-0.5-0.6-0.7c-0.1-0.3-0.2-0.7-0.2-1.2c0-0.1,0-0.2,0-0.5
							l0.1-0.5c0.1-0.5,0.2-0.9,0.3-1.4c0.1-0.5,0.3-0.8,0.6-1.1c0.2-0.3,0.5-0.7,0.7-0.9s0.5-0.6,0.7-0.7c0.2-0.2,0.5-0.3,0.7-0.5
							c0,0,0.1-0.1,0.2-0.1c0.1-0.1,0.2-0.1,0.2-0.1c0.1,0,0.2-0.1,0.3-0.1c0.1-0.1,0.1-0.1,0.2-0.1s0.2,0,0.2,0
							c0.2,0,0.5,0.1,0.6,0.1c0.2,0.1,0.5,0.2,0.6,0.5C91,143.4,91.2,143.5,91.2,143.9"/>
					</g>
				</g>
			</g>
		</g>
	</g>
</g>
</svg>
