<svg id="vector" xmlns="http://www.w3.org/2000/svg" width="300.0d" height="208.2508d" viewBox="0 0 450.38 312.64"><path fill="#0f4e9bff" d="M22.21,186.65l-22.21,124.85l427.96,1.14l22.42,-124.86l-428.17,-1.13z" id="path_0"/><path fill="#fcfcfcff" d="M115.62,224.39a26.6,26.6 0,1 0,26.53 26.67,26.58 26.58,0 0,0 -26.53,-26.67m-0.13,51A24.4,24.4 0,1 1,140 251.05a24.39,24.39 0,0 1,-24.46 24.33" id="path_1"/><path fill="#fcfcfcff" d="M115.61,228.61A22.38,22.38 0,1 0,137.93 251a22.38,22.38 0,0 0,-22.32 -22.43m-9.44,35.72 l0.07,-26.67 4.51,2.25 -0.06,22.17ZM113.07,260.85 L113.17,241.09L132.91,251Z" id="path_2"/><path fill="#fcfcfcff" d="M46.11,264.76l10.1,-5.82c1.82,4.24 4.95,7.1 10.73,7.11 5.55,0 6.94,-2.17 7,-4.14 0,-3.14 -2.91,-4.39 -10.58,-6.53s-15,-5.82 -15,-15.61 8.37,-15.54 17.21,-15.52c8.4,0 15,4.06 18.68,11.6l-9.88,5.74c-1.75,-3.65 -4.15,-5.92 -8.83,-5.94 -3.65,0 -5.48,1.81 -5.49,3.86 0,2.34 1.23,4 9.19,6.38 7.74,2.36 16.43,5.09 16.4,15.9 0,9.87 -7.93,15.69 -19,15.66 -10.74,0 -17.6,-5.16 -20.43,-12.69" id="path_3"/><path fill="#fcfcfcff" d="M146.48,251.07c0,-15.06 11.25,-26.57 26.67,-26.53A25.51,25.51 0,0 1,195 236.43l-10.1,5.82c-2.26,-3.95 -6.63,-6.3 -11.82,-6.31 -9.06,0 -14.92,6 -15,15.16S164,266.31 173,266.33c5.18,0 9.65,-2.31 11.85,-6.25L195,266a25.31,25.31 0,0 1,-22 11.77c-15.42,0 -26.57,-11.61 -26.53,-26.66" id="path_4"/><path fill="#fcfcfcff" d="M200.412,276.783l0.134,-51.15l11.69,0.031l-0.134,51.15z" id="path_5"/><path fill="#fcfcfcff" d="M250.85,268.88l-19,-0.05 -2.58,8 -12.79,0L234,225.72l14.9,0L266.18,277l-12.79,0ZM247.38,257.88 L241.43,239.08 235.43,257.85Z" id="path_6"/><path fill="#fcfcfcff" d="M300.55,265.8l-0.03,11.25l-29.96,-0.08l0.14,-51.15l11.69,0.03l-0.1,39.9l18.26,0.05z" id="path_7"/><path fill="#fcfcfcff" d="M358.36,237.31l-13.16,-0.04l-0.1,39.9l-11.69,-0.04l0.1,-39.89l-13.15,-0.03l0.03,-11.26l37.99,0.1l-0.02,11.26z" id="path_8"/><path fill="#fcfcfcff" d="M359.12,226.05l12.78,0.04l11.23,37.66l11.43,-37.6l12.78,0.03l-16.79,51.11l-14.91,-0.04l-16.52,-51.2z" id="path_9"/><path fill="#ef3824ff" d="M415.5,24.23l-31.85,177.28l-166.99,-0.53l2.55,-13.73l-149.27,-0.4l29.25,-163.45l21.59,0.01l4.35,-23.41l219.88,0.58l-4.28,23.41l74.77,0.24z" id="path_10"/><path fill="#fcfcfcff" d="M120.3,152.23l0.33,-128.83 1.88,-9.62 28.51,0.07a66.9,66.9 0,0 1,15.5 1.29,20.48 20.48,0 0,1 10.59,6.26 39.12,39.12 0,0 1,7.66 12.93,52.63 52.63,0 0,1 2.81,12.37 74.77,74.77 0,0 1,0.38 8.35Q187.8,68 185.15,75.48c-1.78,5 -3.84,8.76 -6.21,11.29a34.85,34.85 0,0 1,-6.43 5.61l17.66,60 -25.4,-0.07L151.68,97.93l-7.59,0L144,152.29ZM144.3,35.63 L144.19,75.07 150.89,75.07q7,0 10.05,-5.24T164,54.78q-0.08,-10.59 -3.58,-14.92A11.15,11.15 0,0 0,151 35.65Z" fill-rule="evenodd" id="path_11"/><path fill="#fcfcfcff" d="M197.93,152.38l0.36,-138.46 22.58,0.06a84.51,84.51 0,0 1,17.91 1.37,32.39 32.39,0 0,1 14.72,7.43 43.79,43.79 0,0 1,11.81 18.59,97.53 97.53,0 0,1 4.79,22.21 162.71,162.71 0,0 1,0.88 18q0,20.48 -4,36.24T253.53,143.6a29.34,29.34 0,0 1,-9.17 6.07q-5.9,2.67 -14.85,2.79ZM221.87,38.06l-0.24,90.1 7.06,0c1.47,0.19 3.69,-0.18 6.66,-1.13s5.29,-3.6 7,-8a65.74,65.74 0,0 0,1.91 -11c0.44,-4.42 0.76,-8.82 0.93,-13.19s0.25,-7.94 0.25,-10.7q0,-20.65 -1.87,-30.59t-5.59,-12.89a12.78,12.78 0,0 0,-9 -2.65Z" fill-rule="evenodd" id="path_12"/><path fill="#fcfcfcff" d="M341.44,44.2l-18,9.29q-2.19,-9.87 -5.81,-13.17a10.18,10.18 0,0 0,-7.55 -3.06c-3.19,0.12 -5.51,1.11 -7,3a13.53,13.53 0,0 0,-2.79 6,22.08 22.08,0 0,0 -0.51,4.51 16.11,16.11 0,0 0,1.58 8.05,18.17 18.17,0 0,0 6.25,6.07q4.58,3 13.11,7.53a56.83,56.83 0,0 1,9 6.07,35.38 35.38,0 0,1 9.15,11.94q4,7.8 4.15,20.86 -0.15,19.63 -9.37,31.53T307.27,155q-13.25,-0.35 -20.4,-6.74a35.81,35.81 0,0 1,-10.18 -15,75.9 75.9,0 0,1 -3.9,-15.69L292,109.67q2,10.93 5.52,15.71a11.28,11.28 0,0 0,9.78 4.67q5.39,-0.17 8,-3a13.65,13.65 0,0 0,3.36 -6.25,21.79 21.79,0 0,0 0.69,-5.24q-0.17,-6.89 -3.19,-10.47a20.46,20.46 0,0 0,-6.65 -5.33,187.86 187.86,0 0,1 -17.19,-10.84 33.62,33.62 0,0 1,-9.92 -11.45A41.84,41.84 0,0 1,278.61 67a55.43,55.43 0,0 1,-1.42 -12.61,56.07 56.07,0 0,1 3.75,-20.23 38,38 0,0 1,10.87 -15.61,27.14 27.14,0 0,1 17.6,-6.22q12,0.4 18.63,6.53a37,37 0,0 1,9.61 13.57,69 69,0 0,1 3.79,11.75" id="path_13"/><path fill="#fcfcfcff" d="M353.76,57.23l0,-9.81h3.74a4.55,4.55 0,0 1,2.75 0.67,2.56 2.56,0 0,1 0.94,2.22 2.48,2.48 0,0 1,-0.73 1.92,2.94 2.94,0 0,1 -1.74,0.71l2.62,4.3h-2L356.94,53L355.6,53v4.22ZM355.61,48.81v2.81h1.7a3.14,3.14 0,0 0,1.48 -0.23c0.4,-0.18 0.6,-0.58 0.62,-1.23a1.14,1.14 0,0 0,-0.67 -1.1,3.33 3.33,0 0,0 -1.4,-0.25ZM348.4,52.15a9.35,9.35 0,0 1,1.26 -4.74,8.76 8.76,0 0,1 3.22,-3.15 8.92,8.92 0,0 1,4.35 -1.13,8.81 8.81,0 0,1 4.35,1.16 8.66,8.66 0,0 1,3.2 3.16,9.66 9.66,0 0,1 0,9.49 8.66,8.66 0,0 1,-3.21 3.15,8.93 8.93,0 0,1 -4.36,1.13 8.84,8.84 0,0 1,-4.35 -1.16,8.73 8.73,0 0,1 -3.2,-3.16 9.37,9.37 0,0 1,-1.23 -4.75m2.12,0a7.45,7.45 0,0 0,0.89 3.68,6.6 6.6,0 0,0 11.56,0 7.55,7.55 0,0 0,0.93 -3.68,7.46 7.46,0 0,0 -0.91,-3.68 6.68,6.68 0,0 0,-2.4 -2.49,6.57 6.57,0 0,0 -3.36,-0.92 6.53,6.53 0,0 0,-5.8 3.38,7.54 7.54,0 0,0 -0.91,3.68" fill-rule="evenodd" id="path_14"/><path fill="#fcfcfcff" d="M121.76,176.82l0,-12.3h-3.21v-2.74h0.17a4.67,4.67 0,0 0,2.77 -0.71,3.51 3.51,0 0,0 1.38,-2.15h2.46l0,17.92Z" id="path_15"/><path fill="#fcfcfcff" d="M132.05,166.79a16.84,16.84 0,0 1,0.28 -3.9,1 1,0 0,1 1,-0.8 1,1 0,0 1,0.95 0.78,14.4 14.4,0 0,1 0.25,3.64v2.89a16.92,16.92 0,0 1,-0.26 3.86,1 1,0 0,1 -1.94,0 16.13,16.13 0,0 1,-0.25 -3.87v-2.6ZM128.58,172.79a6.19,6.19 0,0 0,0.56 2.21,4.13 4.13,0 0,0 1.66,1.68 5.15,5.15 0,0 0,2.47 0.58,4.82 4.82,0 0,0 2.92,-0.87 3.68,3.68 0,0 0,1.54 -2.3,15 15,0 0,0 0.31,-2.37c0.05,-1 0.09,-2.42 0.09,-4.37a32.29,32.29 0,0 0,-0.17 -4.06,6.19 6.19,0 0,0 -0.6,-2.13 4.12,4.12 0,0 0,-1.64 -1.62,5.2 5.2,0 0,0 -2.41,-0.57 5.07,5.07 0,0 0,-2.41 0.55,4 4,0 0,0 -1.66,1.6 5.93,5.93 0,0 0,-0.62 2.2,43.18 43.18,0 0,0 -0.19,4.78 45.3,45.3 0,0 0,0.15 4.69" id="path_16"/><path fill="#fcfcfcff" d="M143.69,166.82a16.89,16.89 0,0 1,0.27 -3.89,1 1,0 0,1 1,-0.81 1,1 0,0 1,1 0.78,14.92 14.92,0 0,1 0.25,3.64v2.89a16.47,16.47 0,0 1,-0.28 3.86,1 1,0 0,1 -1,0.81 1,1 0,0 1,-1 -0.81,17.28 17.28,0 0,1 -0.25,-3.86v-2.61ZM140.22,172.82a6.21,6.21 0,0 0,0.55 2.2,4.16 4.16,0 0,0 1.67,1.68 5,5 0,0 0,2.46 0.58,4.89 4.89,0 0,0 2.92,-0.86 3.78,3.78 0,0 0,1.55 -2.31,15.11 15.11,0 0,0 0.3,-2.37c0.06,-1 0.09,-2.42 0.1,-4.37a34.35,34.35 0,0 0,-0.17 -4.06,6.4 6.4,0 0,0 -0.61,-2.13 4,4 0,0 0,-1.63 -1.62A5.23,5.23 0,0 0,145 159a5.14,5.14 0,0 0,-2.42 0.55,4 4,0 0,0 -1.65,1.6 5.75,5.75 0,0 0,-0.62 2.2,43.18 43.18,0 0,0 -0.19,4.78 45.64,45.64 0,0 0,0.15 4.7" id="path_17"/><path fill="#fcfcfcff" d="M163.38,170.73a0.77,0.77 0,0 1,0.75 -0.53,0.78 0.78,0 0,1 0.76,0.55 5.52,5.52 0,0 1,0.22 1.88,5.61 5.61,0 0,1 -0.23,1.87 0.78,0.78 0,0 1,-0.76 0.53,0.76 0.76,0 0,1 -0.75,-0.52 8.41,8.41 0,0 1,0 -3.78m-1.93,5.46a3.9,3.9 0,0 0,5.36 0,8.44 8.44,0 0,0 0,-7.15 3.88,3.88 0,0 0,-5.35 0,6.14 6.14,0 0,0 -0.82,3.59 6,6 0,0 0,0.8 3.57m-4.6,1.05L164.53,159h-2l-7.7,18.22ZM154.43,161.75a0.75,0.75 0,0 1,0.75 -0.52,0.77 0.77,0 0,1 0.75,0.53 8,8 0,0 1,0 3.76,0.77 0.77,0 0,1 -0.75,0.54 0.76,0.76 0,0 1,-0.75 -0.54,5.47 5.47,0 0,1 -0.22,-1.89 5.38,5.38 0,0 1,0.23 -1.88m-1.94,5.46a3.87,3.87 0,0 0,5.35 0,6.12 6.12,0 0,0 0.82,-3.58 6,6 0,0 0,-0.8 -3.57,3.12 3.12,0 0,0 -2.67,-1.07 3.17,3.17 0,0 0,-2.68 1,8.41 8.41,0 0,0 0,7.16" id="path_18"/><path fill="#fcfcfcff" d="M185.75,167.24l0,9.75h-2.58l-0.16,-1.1a4,4 0,0 1,-1.25 1.06,3.26 3.26,0 0,1 -1.54,0.35 4,4 0,0 1,-1.81 -0.41,4.23 4.23,0 0,1 -1.44,-1.17 5.72,5.72 0,0 1,-1.07 -2.53,32.79 32.79,0 0,1 -0.3,-5.37 34.23,34.23 0,0 1,0.24 -4.32,6.79 6.79,0 0,1 0.68,-2.43 4.32,4.32 0,0 1,1.77 -1.75,5.34 5.34,0 0,1 2.6,-0.58 4.37,4.37 0,0 1,3.56 1.43,6.49 6.49,0 0,1 1.19,4.28c0,0.07 0,0.17 0,0.32s0,0.25 0,0.34h-3.54v-0.22a6.2,6.2 0,0 0,-0.29 -2.23,1 1,0 0,0 -1,-0.67 1.09,1.09 0,0 0,-1.09 0.82,14.63 14.63,0 0,0 -0.31,3.81v3a15,15 0,0 0,0.26 3.76,1 1,0 0,0 1,0.79 1.16,1.16 0,0 0,1.11 -0.69,5.39 5.39,0 0,0 0.35,-2.22c0,-0.23 0,-0.41 0,-0.54s0,-0.24 0,-0.36h-1.48v-3.11Z" id="path_19"/><path fill="#fcfcfcff" d="M192.13,162.27h0.47a1.77,1.77 0,0 1,2.12 2.1,2.56 2.56,0 0,1 -0.48,1.75 2.2,2.2 0,0 1,-1.65 0.51h-0.47ZM192.13,177.01 L192.13,169.86h0.77a1.53,1.53 0,0 1,1.39 0.61,4.39 4.39,0 0,1 0.38,2.24c0,0.12 0,0.39 0,0.79s0,0.76 0,1a10.8,10.8 0,0 0,0.07 1.31,7.54 7.54,0 0,0 0.21,1.17h4.36c-0.55,-0.52 -0.83,-1.78 -0.85,-3.79 0,-0.42 0,-0.75 0,-1v-0.06c-0.06,-2.14 -0.67,-3.5 -1.83,-4.07a4.1,4.1 0,0 0,1.5 -1.71,6.12 6.12,0 0,0 0.49,-2.58 6.39,6.39 0,0 0,-0.33 -2.17,3.91 3.91,0 0,0 -1,-1.54 3.19,3.19 0,0 0,-1.51 -0.73,14.22 14.22,0 0,0 -3,-0.23h-4.22l0,17.83Z" id="path_20"/><path fill="#fcfcfcff" d="M205.67,162.63l1.06,7.78h-2.15ZM203.67,177.04 L204.14,173.61h3l0.45,3.44h3.75l-3.4,-17.84h-4.47L199.91,177Z" id="path_21"/><path fill="#fcfcfcff" d="M213,177.07l0.05,-17.84 3.9,0 3.07,11c-0.12,-1.85 -0.21,-3.45 -0.26,-4.79s-0.08,-2.48 -0.08,-3.4v-2.81H223L223,177.09h-3.9L216,165.74c0.14,1.47 0.23,2.9 0.31,4.29s0.1,2.73 0.1,4v3Z" id="path_22"/><path fill="#fcfcfcff" d="M229.81,162.59h0.31a2.58,2.58 0,0 1,1.08 0.19,1.19 1.19,0 0,1 0.62,0.57 2.33,2.33 0,0 1,0.28 1.07c0.05,0.52 0.07,1.53 0.06,3v0.8c0,1.82 0,3 -0.09,3.65a3,3 0,0 1,-0.28 1.25,1.5 1.5,0 0,1 -0.66,0.59 2.27,2.27 0,0 1,-1 0.19h-0.33l-0.22,0 0,-11.28a0.59,0.59 0,0 1,0.19 0m0.14,14.52a9.58,9.58 0,0 0,3.34 -0.43A3.5,3.5 0,0 0,235 175.2a5.86,5.86 0,0 0,0.7 -2.13,35.29 35.29,0 0,0 0.23,-4.86 37.18,37.18 0,0 0,-0.2 -4.87,5.74 5.74,0 0,0 -0.7,-2.12 3.39,3.39 0,0 0,-1.73 -1.49,9.28 9.28,0 0,0 -3.35,-0.45h-4.12l0,17.83Z" id="path_23"/><path fill="#fcfcfcff" d="M238.445,177.126l0.047,-17.83l3.76,0.01l-0.047,17.83z" id="path_24"/><path fill="#fcfcfcff" d="M250.45,171.13h3.44v0.53a4.93,4.93 0,0 0,0.31 2.08,1.09 1.09,0 0,0 1.05,0.6 1.12,1.12 0,0 0,0.94 -0.45,2.11 2.11,0 0,0 0.34,-1.25 3.26,3.26 0,0 0,-1.68 -2.5l-0.42,-0.31 -0.17,-0.13a13.06,13.06 0,0 1,-2.8 -2.55,5.45 5.45,0 0,1 -0.59,-1.46 7,7 0,0 1,-0.21 -1.77,5.25 5.25,0 0,1 1.23,-3.66 4.3,4.3 0,0 1,3.35 -1.33,4.61 4.61,0 0,1 3.54,1.32A5.35,5.35 0,0 1,260 164c0,0.07 0,0.17 0,0.29s0,0.22 0,0.29h-3.36v-0.22a3.82,3.82 0,0 0,-0.32 -1.78,1.07 1.07,0 0,0 -0.95,-0.61 1,1 0,0 0,-0.86 0.43,1.82 1.82,0 0,0 -0.33,1.12c0,0.75 0.62,1.56 1.85,2.41 0.22,0.17 0.38,0.29 0.51,0.37l0.4,0.29A8.9,8.9 0,0 1,259.4 169a5.28,5.28 0,0 1,0.52 1.4,7.62 7.62,0 0,1 0.18,1.69 6.13,6.13 0,0 1,-1.26 4.12,4.45 4.45,0 0,1 -3.57,1.43 4.61,4.61 0,0 1,-3.65 -1.38,6 6,0 0,1 -1.22,-4.11c0,-0.12 0,-0.24 0,-0.37a5.83,5.83 0,0 1,0 -0.6" id="path_25"/><path fill="#fcfcfcff" d="M262.38,159.37h3.81l0,11.16a10,10 0,0 0,0.28 3.14,1 1,0 0,0 1,0.6 1,1 0,0 0,1 -0.62,9.84 9.84,0 0,0 0.29,-3.11l0,-11.17h3.71l0,11.38a18.42,18.42 0,0 1,-0.16 2.88,5.22 5.22,0 0,1 -0.5,1.66 3.65,3.65 0,0 1,-1.66 1.76,6.2 6.2,0 0,1 -2.82,0.56 5.64,5.64 0,0 1,-2.62 -0.54,3.69 3.69,0 0,1 -1.59,-1.69 6.16,6.16 0,0 1,-0.6 -2.1,36.93 36.93,0 0,1 -0.16,-4.34Z" id="path_26"/><path fill="#fcfcfcff" d="M281.82,170.33h3.66a3.39,3.39 0,0 1,0 0.35c0,0.12 0,0.3 0,0.55a7.63,7.63 0,0 1,-1.3 4.85,4.79 4.79,0 0,1 -3.94,1.57 5.66,5.66 0,0 1,-2.67 -0.59,4.45 4.45,0 0,1 -1.8,-1.75 6.62,6.62 0,0 1,-0.67 -2.32,35.82 35.82,0 0,1 -0.2,-4.7 36.71,36.71 0,0 1,0.22 -4.69,6.47 6.47,0 0,1 0.69,-2.3 4.5,4.5 0,0 1,1.78 -1.74,5.67 5.67,0 0,1 2.63,-0.57 4.75,4.75 0,0 1,3.93 1.63,7.6 7.6,0 0,1 1.3,4.84v0.18l-3.62,0a6.49,6.49 0,0 0,-0.37 -2.55,1.21 1.21,0 0,0 -1.18,-0.74 1.23,1.23 0,0 0,-1.23 0.89,19.59 19.59,0 0,0 -0.34,4.74v0.34a22.23,22.23 0,0 0,0.31 5.07,1.31 1.31,0 0,0 2.4,0.26 6.38,6.38 0,0 0,0.35 -2.52Z" id="path_27"/><path fill="#fcfcfcff" d="M294.73,170.36h3.67c0,0.11 0,0.22 0,0.35s0,0.31 0,0.56a7.67,7.67 0,0 1,-1.3 4.84,4.76 4.76,0 0,1 -3.94,1.57 5.72,5.72 0,0 1,-2.67 -0.58,4.47 4.47,0 0,1 -1.8,-1.76 6.55,6.55 0,0 1,-0.68 -2.31,53.85 53.85,0 0,1 0,-9.39 6.46,6.46 0,0 1,0.69 -2.31,4.41 4.41,0 0,1 1.78,-1.73 5.52,5.52 0,0 1,2.63 -0.58,4.78 4.78,0 0,1 3.93,1.63 7.69,7.69 0,0 1,1.3 4.85v0.17l-3.63,0a6.35,6.35 0,0 0,-0.36 -2.55,1.24 1.24,0 0,0 -1.18,-0.74 1.23,1.23 0,0 0,-1.23 0.9,19.31 19.31,0 0,0 -0.35,4.74v0.33a22,22 0,0 0,0.32 5.07,1.22 1.22,0 0,0 1.22,0.94 1.19,1.19 0,0 0,1.17 -0.67,6.29 6.29,0 0,0 0.35,-2.53Z" id="path_28"/><path fill="#fcfcfcff" d="M301.09,177.3l0.04,-17.83l8.73,0.02l-0.01,3.44l-5.01,-0.01l-0.01,3.29l4.63,0.01l-0.01,3.58l-4.63,-0.01l-0.01,3.9l5.01,0.01l-0.01,3.62l-8.72,-0.02z" id="path_29"/><path fill="#fcfcfcff" d="M311.84,171.29h3.43v0.52a5.06,5.06 0,0 0,0.31 2.08,1.21 1.21,0 0,0 2,0.15 2.09,2.09 0,0 0,0.34 -1.25,3.25 3.25,0 0,0 -1.68,-2.49l-0.42,-0.32 -0.18,-0.13a12.67,12.67 0,0 1,-2.79 -2.55,5.46 5.46,0 0,1 -0.6,-1.46 7,7 0,0 1,-0.21 -1.77,5.25 5.25,0 0,1 1.23,-3.66 4.27,4.27 0,0 1,3.36 -1.32,4.6 4.6,0 0,1 3.54,1.31 5.35,5.35 0,0 1,1.21 3.78c0,0.07 0,0.17 0,0.29s0,0.22 0,0.29H318v-0.22a4,4 0,0 0,-0.32 -1.78,1 1,0 0,0 -1,-0.6 1,1 0,0 0,-0.85 0.42,1.76 1.76,0 0,0 -0.33,1.12c0,0.75 0.62,1.56 1.85,2.42 0.22,0.16 0.38,0.28 0.51,0.36l0.4,0.3a8.76,8.76 0,0 1,2.51 2.34,6 6,0 0,1 0.52,1.39 7.64,7.64 0,0 1,0.18 1.7,6.1 6.1,0 0,1 -1.27,4.11 4.46,4.46 0,0 1,-3.57 1.44,4.65 4.65,0 0,1 -3.65,-1.39 6,6 0,0 1,-1.21 -4.11v-0.37c0,-0.12 0,-0.32 0,-0.6" id="path_30"/><path fill="#fcfcfcff" d="M323.24,171.32h3.44v0.52a4.9,4.9 0,0 0,0.31 2.08,1.12 1.12,0 0,0 1.06,0.61 1.15,1.15 0,0 0,0.94 -0.46,2.09 2.09,0 0,0 0.34,-1.25 3.24,3.24 0,0 0,-1.69 -2.49c-0.17,-0.14 -0.32,-0.25 -0.42,-0.32l-0.17,-0.13a12.43,12.43 0,0 1,-2.79 -2.55,4.88 4.88,0 0,1 -0.6,-1.46 7.05,7.05 0,0 1,-0.2 -1.77,5.2 5.2,0 0,1 1.22,-3.66 4.27,4.27 0,0 1,3.36 -1.32,4.6 4.6,0 0,1 3.54,1.31 5.35,5.35 0,0 1,1.21 3.78c0,0.07 0,0.17 0,0.29s0,0.22 0,0.29h-3.36v-0.22a3.76,3.76 0,0 0,-0.33 -1.77,1 1,0 0,0 -0.95,-0.61 1,1 0,0 0,-0.86 0.42,1.82 1.82,0 0,0 -0.32,1.12c0,0.75 0.61,1.56 1.85,2.42 0.22,0.16 0.38,0.28 0.51,0.36l0.4,0.3a8.9,8.9 0,0 1,2.51 2.34,5.56 5.56,0 0,1 0.51,1.39 7.09,7.09 0,0 1,0.18 1.7,6.05 6.05,0 0,1 -1.26,4.11 4.46,4.46 0,0 1,-3.57 1.44,4.65 4.65,0 0,1 -3.65,-1.39 6,6 0,0 1,-1.22 -4.11c0,-0.11 0,-0.24 0,-0.37s0,-0.32 0,-0.6" id="path_31"/><path fill="#fcfcfcff" d="M335.118,177.387l0.047,-17.83l3.76,0.01l-0.047,17.83z" id="path_32"/></svg>