<?xml version="1.0" encoding="utf-8"?>
<!-- Generator: Adobe Illustrator 23.0.1, SVG Export Plug-In . SVG Version: 6.00 Build 0)  -->
<svg version="1.1"
	 id="Layer_1" xmlns:cc="http://creativecommons.org/ns#" xmlns:dc="http://purl.org/dc/elements/1.1/" xmlns:inkscape="http://www.inkscape.org/namespaces/inkscape" xmlns:rdf="http://www.w3.org/1999/02/22-rdf-syntax-ns#" xmlns:sodipodi="http://sodipodi.sourceforge.net/DTD/sodipodi-0.dtd" xmlns:svg="http://www.w3.org/2000/svg"
	 xmlns="http://www.w3.org/2000/svg" xmlns:xlink="http://www.w3.org/1999/xlink" x="0px" y="0px" viewBox="0 0 1714.5 500"
	 enable-background="new 0 0 1714.5 500" xml:space="preserve">
<g>
	<g>
		<path fill="#01A8A0" d="M75.7,0C33.8,0,2.7,29.1,0,66.1v368c2.6,35.4,31.1,63.6,66.6,65.9h790.5V0H75.7z"/>
		<path fill="#E40050" d="M1643.1,0H857.2v500h790.5c37.2-2.4,66.6-33.3,66.8-71.1V71.2C1714.4,31.8,1682.5,0,1643.1,0z"/>
	</g>
	<g>
		<path fill="#FFFFFF" d="M666.1,198.2h-30.8c-2.2,0-4,1.9-4,4.1v12.9c-12.4-12.9-29.3-20.4-48.8-20.4c-41.4,0-75.7,35.8-75.7,83.1
			c0,46.9,34.3,82.8,75.7,82.8c19.5,0,36.5-7.5,48.8-20.4v12.9c0,2.3,1.8,4.1,4,4.1h30.8c2.2,0,4-1.8,4-4.1V202.3
			C670.1,200,668.4,198.2,666.1,198.2 M588.7,322.9c-22.6,0-40.8-19.4-40.8-44.7c0-26,18.2-45.7,40.8-45.7
			c22.5,0,40.7,20.4,40.7,45.7C629.4,302.9,611.2,322.9,588.7,322.9 M780.7,319.4c-0.1,0-0.2,0.1-0.3,0.1h-0.1l-3.3,0.2
			c-20.1,1.2-30.2-6.8-30.2-29.3V123.1c0-2.2-1.9-4.1-4.1-4.1h-32.8c-2.2,0-4.1,1.9-4.1,4.1v167.3c0,43.5,24.7,71.3,71.3,66.3
			l4.2-0.5l0.1-0.1c2-0.3,3.5-2,3.5-4v-28.6C784.8,321.2,783,319.4,780.7,319.4 M404.1,194.4c-44.7,0-81.5,37.7-81.5,83.7
			c0,46,36.8,83,81.5,83c37.2,0,64.2-19.4,75-48.6c0,0,0-0.1,0-0.1c0.2-0.5,0.3-1,0.3-1.6c0-2.2-1.7-3.9-3.9-4l-0.1-0.1h-35.7
			c-1.9,0-2.9,0.9-3.5,2c-6.7,11.5-19.7,16.5-32.5,16.5c-19.1,0-34.6-12-39.8-31.5h116.3c2,0,4-1.1,4.1-3.6
			C488.5,229.4,450.2,194.4,404.1,194.4 M364.6,260.5c5.8-18.5,20.7-30.2,39.2-30.2c19.5,0,34.9,11.7,39.9,30.2H364.6z M311.4,351.4
			L311.4,351.4l-0.1-0.1c-0.1-0.2-0.1-0.3-0.2-0.5l-44.5-77.1c23.2-10.8,37-33.4,37-61.7c0-42-26-69.2-70.7-69.2h-86.1
			c-2.2,0-4.1,1.8-4.1,4v206.2c0,2.2,1.9,4.1,4.1,4.1h32.6c2.3,0,4.1-1.9,4.1-4.1v-72.5h40.1l42.8,74.3c0.7,1.4,2.1,2.3,3.7,2.3
			h37.7c2.2,0,4.1-1.9,4.1-4.1C311.8,352.5,311.7,351.9,311.4,351.4 M232.5,243.2h-49.1v-62.4h49.1c18.9,0,30.3,9.6,30.3,31.2
			S251.4,243.2,232.5,243.2"/>
		<path fill="#FFFFFF" d="M1080.2,142.9H932.7c-2.2,0-4.1,1.9-4.1,4.1v29.9c0,2.2,1.9,4.1,4.1,4.1h53.4v172.2c0,2.2,1.9,4.1,4.1,4.1
			h32.6c2.3,0,4.1-1.9,4.1-4.1V180.9h53.4c2.3,0,4.1-1.9,4.1-4.1V147C1084.3,144.7,1082.5,142.9,1080.2,142.9 M1133.3,197.2h-32.6
			c-2.3,0-4.1,1.9-4.1,4.1v151.8c0,2.2,1.8,4.1,4.1,4.1h32.6c2.2,0,4.1-1.9,4.1-4.1V201.3C1137.3,199.1,1135.5,197.2,1133.3,197.2
			 M1330.1,193.9c-17.7,0-32.3,7.5-42.2,19.6c-9.6-12.4-24.2-19.6-41.4-19.6c-15.1,0-27.1,6.4-35.7,16.9v-8.8c0-2.3-1.9-4.1-4.1-4.1
			h-31.1c-2.2,0-4.1,1.8-4.1,4.1v151.2c0.1,2.2,1.9,3.9,4.1,3.9h32.9c2.2,0,3.9-1.7,4.1-3.9v-96.1c0-13.9,9.9-24.6,23.9-24.6
			c21,0,23.1,17.4,23.1,24.6v96.1h0.1c0.1,2.2,1.9,3.9,4,3.9h32.9c2.2,0,4-1.7,4.1-3.9h0.1v-96.1c0-14,9.9-24.6,24-24.6
			c20.7,0,23.1,17.4,23.1,24.6v96.1h0.1c0.1,2.2,1.9,3.9,4.1,3.9h32.9v-0.1c2.1-0.2,3.6-1.8,3.7-3.9h0.1v-98.4
			C1388.8,218.6,1367.3,193.9,1330.1,193.9 M1495,194.2c-44.8,0-81.5,37.7-81.5,83.7c0,46,36.7,83.1,81.5,83.1
			c37.1,0,64.2-19.4,75-48.6c0.1,0,0-0.1,0.1-0.1c0.2-0.5,0.3-1,0.3-1.6c0-2.2-1.7-3.9-3.9-4l-0.1-0.1h-35.7c-1.9,0-2.9,0.9-3.5,2
			c-6.7,11.5-19.6,16.5-32.5,16.5c-19.1,0-34.6-12-39.8-31.5h116.4c1.9,0,3.9-1.1,4-3.6C1579.3,229.2,1541,194.2,1495,194.2
			 M1455.4,260.2c5.9-18.5,20.7-30.3,39.2-30.3c19.5,0,34.9,11.8,39.9,30.3H1455.4z M1133.3,142.9h-32.6c-2.3,0-4.1,1.9-4.1,4.1
			v26.3c0,2.2,1.8,4.1,4.1,4.1h32.6c2.2,0,4.1-1.9,4.1-4.1V147C1137.3,144.7,1135.5,142.9,1133.3,142.9"/>
	</g>
</g>
</svg>
