<?xml version="1.0" encoding="utf-8"?>
<!-- Generator: Adobe Illustrator 27.0.0, SVG Export Plug-In . SVG Version: 6.00 Build 0)  -->
<svg version="1.1" id="Layer_1" xmlns="http://www.w3.org/2000/svg" xmlns:xlink="http://www.w3.org/1999/xlink" x="0px" y="0px"
	 viewBox="0 0 677.1 283.5" style="enable-background:new 0 0 677.1 283.5;" xml:space="preserve">
<style type="text/css">
	.st0{fill:#FFFFFF;}
	.st1{fill:#FF0000;}
	.st2{fill-rule:evenodd;clip-rule:evenodd;}
	.st3{fill-rule:evenodd;clip-rule:evenodd;fill:#FFFFFF;}
</style>
<g id="loghi">
	<g>
		<g>
			<path class="st0" d="M314.7,190.6l12.9-99.3l52.1,59.8c1.9,2.2,3.5,4.2,5.1,6.2c1.5,1.9,2.9,3.8,4.2,5.8c0-2,0.1-4.1,0.3-6.3
				s0.6-5.1,0.9-8.5l7.1-53.2h14l-12.9,99.2l-52.1-59.5c-2.4-2.7-4.2-5-5.7-6.8c-1.4-1.8-2.6-3.6-3.7-5.3c-0.1,2.9-0.6,7.5-1.4,13.6
				c-0.1,0.6-0.1,1-0.2,1.4l-6.8,53.2h-13.9V190.6z"/>
			<path class="st0" d="M420.8,190.6l12.6-95.4h53.5l-1.7,13.5h-38.8l-3.1,24h38.6l-1.8,13.4h-38.6l-4,30.9h38.8l-1.9,13.8h-53.7
				L420.8,190.6L420.8,190.6z"/>
			<path class="st0" d="M491.1,95.2h15.5l12.7,56.7c0.3,1.9,0.7,3.6,0.9,5.1c0.2,1.5,0.5,2.8,0.5,4.1c0.8-2,1.6-3.8,2.3-5.5
				c0.7-1.7,1.2-2.8,1.6-3.5l30.5-60.7l16.4,61.5c0.2,0.7,0.3,1.7,0.6,2.9c0.2,1.2,0.5,3.1,0.8,5.4c0.6-2,1.1-3.8,1.7-5.5
				c0.6-1.7,1-2.9,1.4-3.7l24.5-56.6h16.9l-47.2,99.2L553,132.2c-0.1-0.3-0.3-1.6-0.7-3.7c-0.3-2-0.7-3.6-0.9-5
				c-0.7,2.2-1.4,4.1-1.9,5.7c-0.6,1.6-1.1,2.8-1.5,3.6l-31.8,61.6L491.1,95.2z"/>
			<path class="st0" d="M609.9,174.2l10.5-8.7c2.6,5.2,5.4,8.9,8.4,11.3c2.9,2.4,6.6,3.5,10.5,3.5c5.1,0,9.2-1.5,12.2-4.4
				c3.2-2.9,4.6-6.8,4.6-11.5c0-3.4-0.8-6.2-2.5-8.5c-1.7-2.4-4.5-4.8-8.7-7.1c-0.9-0.6-2.2-1.2-3.8-2.3c-7.1-4-11.9-7.4-14.4-10.1
				c-1.8-1.9-3.2-4.2-4-6.8c-0.9-2.6-1.4-5.3-1.4-8.4c0-8.4,2.7-15.3,8-20.5c5.4-5.3,12.5-7.9,21.2-7.9c5.9,0,11,1.2,15.4,3.6
				s8,6,11,10.6l-9.2,8.4c-2.2-3.5-4.5-6.1-7.1-7.8c-2.6-1.7-5.5-2.5-8.7-2.5c-4.6,0-8.5,1.4-11.4,4.1c-2.9,2.7-4.4,6.3-4.4,10.6
				c0,5.2,4.2,10.1,12.6,14.6c2,1.1,3.6,1.9,4.8,2.6c6.5,3.7,11,7.6,13.7,11.7c2.7,4.1,4,8.9,4,14.7c0,9.1-2.9,16.2-8.7,21.5
				s-13.7,8-23.8,8c-6.8,0-12.6-1.6-17.4-4.6S612.9,180.7,609.9,174.2z"/>
		</g>
	</g>
	<g>
		<path class="st1" d="M0,141.5C0,63.4,63.4,0,141.5,0S283,63.4,283,141.5S219.6,283,141.5,283S0,219.6,0,141.5z"/>
		<polygon class="st2" points="27.4,58 255.7,58 141.5,283.5 		"/>
		<path class="st3" d="M86,96.6h2c4.4,0,8.4,0.7,8.4,6.1c0,5.3-4.3,6-8.5,6H86V96.6z M57.2,148.5h25.4v-22.9H83l11.4,23h30
			l-15.5-23.2c-1.5-2-3.1-3.2-4.3-4.3v-0.6c9.6-3.2,13.8-7.8,13.8-18.6c0-18-13.7-24.8-29.8-24.8H57.2V148.5z"/>
		<polygon class="st3" points="120.3,100.3 134.6,99.6 134.6,148.5 160.6,148.5 160.6,99.6 174.9,100.3 174.9,77.1 120.3,77.1 		"/>
		<polygon class="st3" points="180,148.5 227.8,148.5 227.8,125.7 206,125.7 206,77.1 180,77.1 		"/>
		<path class="st3" d="M103.9,171.4c4.6,0,5.7,5.3,5.7,8.8c0,3.3-1.2,9.5-5.7,9.5s-5.7-6.2-5.7-9.5
			C98.3,176.7,99.2,171.4,103.9,171.4z M103.9,158c-13,0-20.6,9.6-20.6,21.8c0,12.9,7.2,22.6,20.6,22.6s20.6-9.7,20.6-22.6
			C124.5,167.7,116.9,158,103.9,158z"/>
		<path class="st3" d="M165.8,202v-13.2l-8.4,0.6l-7.4,1v-0.5c7.6-2.4,15.2-7.7,15.2-16.4c0-10.1-9.5-15.3-18.5-15.3
			c-13,0-18.6,5.7-19.8,18.2h15.4c0.1-2.6,0.6-5.4,3.8-5.4c1.9,0,3.5,1.5,3.5,3.4c0,3.8-6.8,10-9.5,12.3L123.1,202H165.8z"/>
		<path class="st3" d="M179.7,188.3c-4.2,0-8.5,2.7-8.5,7.2s4.3,7.1,8.5,7.1c4.2,0,8.5-2.6,8.5-7.1
			C188.1,190.9,183.8,188.3,179.7,188.3z"/>
		<polygon class="st3" points="57.4,173.1 64.1,172.6 64.1,202 79.6,202 79.6,158.7 57.4,159.4 		"/>
		<path class="st3" d="M198.7,158.7l-3.7,25.6c3.6-1.2,7.6-1.9,11.4-1.9c2.5,0,8.6,0.8,8.6,4.3c0,3.4-5,4.3-7.6,4.3
			c-3.5,0-9.7-1.8-12.9-3.5l-1.7,11.7c4.1,2,12.7,3.5,17.2,3.5c9.2,0,20.7-5,20.7-15.6c0-8.3-6.9-13.5-14.8-13.5
			c-2.2,0-5.9,0.5-7.4,2.3h-0.5c0.8-1.6,1.1-3.3,1.4-5h18.5v-12.1L198.7,158.7L198.7,158.7z"/>
	</g>
</g>
</svg>
