<?xml version="1.0" encoding="utf-8"?>
<!-- Generator: Adobe Illustrator 23.0.1, SVG Export Plug-In . SVG Version: 6.00 Build 0)  -->
<svg version="1.1" id="Livello_1" xmlns="http://www.w3.org/2000/svg" xmlns:xlink="http://www.w3.org/1999/xlink" x="0px" y="0px"
	 viewBox="0 0 250 250" enable-background="new 0 0 250 250" xml:space="preserve">
<g>
	<rect fill="#00549F" width="250" height="250"/>
	<g>
		<path fill="#FFFFFF" d="M109.8,157.8H78.3l-24.2-37.5v37.5H28.8V60.4h39.4c5.4,0,11.4,0.8,15.4,2.4c4,1.6,7.4,3.8,10,6.5
			c2.6,2.8,4.6,5.9,5.9,9.6c1.3,3.6,2,7.5,2,11.6c0,7.4-1.8,14.1-5.4,18.8c-3.6,4.6-9.1,8.2-16.1,9.9L109.8,157.8z M54.1,103.9h5.3
			c5,0,8.8-1,11.5-3.1c2.7-2.1,4-5,4-8.9s-1.3-6.8-4-8.9c-2.7-2.1-6.5-3.1-11.5-3.1h-5.3V103.9z"/>
		<polygon fill="#FFFFFF" points="196.1,91.3 181.2,129.8 166.3,91.3 137.9,91.3 137.9,70.9 114.6,70.9 114.6,91.3 104.4,91.3 
			104.4,108.1 114.6,108.1 114.6,157.8 137.9,157.8 137.9,108.1 148.9,108.1 171.4,157.8 190.1,157.8 220.8,91.3 		"/>
	</g>
	<g>
		<path fill="#FFFFFF" d="M41,174.5c-0.6-0.5-1.2-0.8-1.8-1.1c-0.6-0.2-1.2-0.3-1.7-0.3c-0.7,0-1.3,0.2-1.7,0.5
			c-0.4,0.3-0.7,0.8-0.7,1.3c0,0.4,0.1,0.7,0.3,0.9c0.2,0.2,0.5,0.5,0.9,0.6c0.4,0.2,0.8,0.3,1.2,0.5c0.5,0.1,0.9,0.3,1.3,0.4
			c1.8,0.6,3.1,1.4,3.9,2.4c0.8,1,1.2,2.3,1.2,3.9c0,1.1-0.2,2.1-0.5,2.9c-0.4,0.9-0.9,1.6-1.6,2.2c-0.7,0.6-1.5,1.1-2.6,1.4
			c-1,0.3-2.2,0.5-3.4,0.5c-2.7,0-5.1-0.8-7.4-2.4l2.3-4.4c0.8,0.7,1.6,1.3,2.4,1.6c0.8,0.4,1.6,0.5,2.4,0.5c0.9,0,1.6-0.2,2-0.6
			c0.4-0.4,0.7-0.9,0.7-1.4c0-0.3-0.1-0.6-0.2-0.8c-0.1-0.2-0.3-0.4-0.6-0.6c-0.3-0.2-0.6-0.4-1-0.5c-0.4-0.2-0.9-0.4-1.5-0.6
			c-0.7-0.2-1.4-0.5-2.1-0.7c-0.7-0.3-1.3-0.6-1.8-1.1c-0.5-0.4-1-1-1.3-1.7c-0.3-0.7-0.5-1.5-0.5-2.6c0-1,0.2-2,0.5-2.8
			c0.3-0.8,0.8-1.6,1.4-2.2c0.6-0.6,1.4-1.1,2.3-1.4c0.9-0.3,1.9-0.5,3-0.5c1,0,2.1,0.1,3.3,0.4c1.1,0.3,2.2,0.7,3.3,1.3L41,174.5z"
			/>
		<path fill="#FFFFFF" d="M58.5,186.5h-7.8l-1.3,3.6h-5.8l8-21h6l8,21h-5.8L58.5,186.5z M57,182.3l-2.4-7l-2.4,7H57z"/>
		<path fill="#FFFFFF" d="M66.7,190.1v-21h5.5L82.3,182v-12.8h5.4v21h-5.4l-10.1-12.8v12.8H66.7z"/>
		<path fill="#FFFFFF" d="M97.9,190.1l3.6-21h5.4l4.2,11.2l4.2-11.2h5.4l3.6,21h-5.4l-1.8-12.1l-5,12.1h-2.2l-4.7-12.1l-1.8,12.1
			H97.9z"/>
		<path fill="#FFFFFF" d="M139.5,186.5h-7.8l-1.3,3.6h-5.8l8-21h6l8,21h-5.8L139.5,186.5z M138.1,182.3l-2.4-7l-2.4,7H138.1z"/>
		<path fill="#FFFFFF" d="M165,190.1h-6.8l-5.2-8.1v8.1h-5.5v-21h8.5c1.2,0,2.2,0.2,3.1,0.5c0.9,0.3,1.6,0.8,2.2,1.4
			c0.6,0.6,1,1.3,1.3,2.1c0.3,0.8,0.4,1.6,0.4,2.5c0,1.6-0.4,2.9-1.2,3.9c-0.8,1-1.9,1.7-3.4,2L165,190.1z M153,178.5h1
			c1.1,0,1.9-0.2,2.5-0.7c0.6-0.4,0.9-1.1,0.9-1.9s-0.3-1.5-0.9-1.9c-0.6-0.4-1.4-0.7-2.5-0.7h-1V178.5z"/>
		<path fill="#FFFFFF" d="M171.5,169.1v21h-5.5v-21H171.5z"/>
		<path fill="#FFFFFF" d="M174.6,190.1v-21h5.5l10.1,12.8v-12.8h5.4v21h-5.4L180,177.3v12.8H174.6z"/>
		<path fill="#FFFFFF" d="M197.8,179.6c0-1.6,0.3-3,0.9-4.4c0.6-1.3,1.4-2.5,2.4-3.5c1-1,2.2-1.8,3.7-2.4c1.4-0.6,3-0.8,4.7-0.8
			c1.7,0,3.2,0.3,4.7,0.8c1.4,0.6,2.7,1.3,3.7,2.4c1,1,1.8,2.2,2.4,3.5c0.6,1.3,0.9,2.8,0.9,4.4c0,1.6-0.3,3-0.9,4.4
			c-0.6,1.3-1.4,2.5-2.4,3.5c-1,1-2.3,1.8-3.7,2.4c-1.4,0.6-3,0.8-4.7,0.8c-1.7,0-3.3-0.3-4.7-0.8c-1.4-0.6-2.6-1.3-3.7-2.4
			c-1-1-1.8-2.2-2.4-3.5C198.1,182.7,197.8,181.2,197.8,179.6z M203.5,179.6c0,0.8,0.2,1.6,0.5,2.3c0.3,0.7,0.7,1.3,1.3,1.8
			c0.5,0.5,1.2,0.9,1.9,1.2c0.7,0.3,1.5,0.4,2.3,0.4c0.8,0,1.6-0.1,2.3-0.4c0.7-0.3,1.3-0.7,1.9-1.2c0.5-0.5,1-1.1,1.3-1.8
			c0.3-0.7,0.5-1.5,0.5-2.3c0-0.8-0.2-1.6-0.5-2.3c-0.3-0.7-0.7-1.3-1.3-1.8c-0.5-0.5-1.2-0.9-1.9-1.2c-0.7-0.3-1.5-0.4-2.3-0.4
			c-0.8,0-1.6,0.1-2.3,0.4c-0.7,0.3-1.3,0.7-1.9,1.2c-0.5,0.5-1,1.1-1.3,1.8C203.7,178,203.5,178.8,203.5,179.6z"/>
	</g>
</g>
</svg>
