<?xml version="1.0" encoding="utf-8"?>
<!-- Generator: Adobe Illustrator 23.0.1, SVG Export Plug-In . SVG Version: 6.00 Build 0)  -->
<svg version="1.1" id="SUPER_x21__x5F_HERO_x5F_ZOOM_x5F_COLOUR_x5F_OFF_x5F_AIR"
	 xmlns="http://www.w3.org/2000/svg" xmlns:xlink="http://www.w3.org/1999/xlink" x="0px" y="0px" viewBox="0 0 736.7 500"
	 enable-background="new 0 0 736.7 500" xml:space="preserve">
<g>
	<path fill="#5000AA" d="M669.1,184.9l11.8-5.6L736.7,0l-89.3,28.6l-129.1,94l-14.2,1.6l0,0l-82.5,9.2l-7.5,6.5
		c-8.1-2.9-17.9-3.7-29.6-2.4l-32,3.6l0,0l-54.2,6.1l0,0l-68.5,7.6l-4.8,7.2c-8.9-5.4-20.4-7.4-34.5-5.8l-1.7,0.2
		c-29.3,3.3-50.5,19.1-61.1,45L0,500l678.2-189.2l1-59.2l49-41.6l-55.5-9.7L669.1,184.9z"/>
	<g>
		<g>
			<path fill="#00FF96" d="M221.2,276.5l22.9-105.8l32.1-3.6l-23.5,108.5c-2.6,12,0.2,16.9,8.4,16c8.5-0.9,12.9-6.6,15.5-18.7
				l23.5-108.5l30.4-3.4l-23,106.3c-6.7,31.1-22.1,49.3-51.8,52.6l-3,0.3C223.3,323.5,214.4,308,221.2,276.5z"/>
			<path fill="#00FF96" d="M338.9,160l47.6-5.3c30.8-3.4,41,10.2,33.6,44.2c-7.5,34.5-25.1,51.4-57.4,55l-8,0.9l-11.3,52.3
				l-31.7,3.5l26.3-121.4L338.9,160z M367.6,225.2c11.5-1.3,17.1-7.3,20.3-22.2c3.2-14.7-0.1-19.3-11.6-18l-6.7,0.8l-8.7,40.3
				L367.6,225.2z"/>
			<path fill="#00FF96" d="M436,149.2l76.4-8.5l-6.6,30.7l-45.1,5l-6.2,28.5l39.7-4.4l-6.5,30.2l-39.7,4.4l-6.7,31.1l45.1-5
				l-6.6,30.7l-76.4,8.5L436,149.2z"/>
			<path fill="#00FF96" d="M548.4,284.2l-1.3-53.9l-9.8,1.1l-12,55.4l-31.7,3.5L520,168.9l1-29.2l46.7-5.2c31.5-3.5,41.7,11,35,41.7
				c-4.5,20.9-12.7,34-24.1,42.8l1.9,61.6L548.4,284.2z M551.2,200.8c11.3-1.3,16.3-6.6,19.1-19.9c2.8-13.1,0-17.6-11.3-16.3
				l-7.4,0.8l-7.8,36.2L551.2,200.8z"/>
			<path fill="#00FF96" d="M186.8,235.8c-10.5-5.1-17.8-8.6-15.3-20.4c2.1-9.8,6.4-14,13.6-14.8c7.8-0.9,10.2,2.8,7.5,15.2l-1.5,6.9
				l33.6-10.7c5.1-27.7-4.4-41.8-32.2-38.7l-1.7,0.2c-26.5,3-44.6,18.2-50.9,47.3c-5.9,27.3,4.2,35.3,22.9,44.7
				c16.1,8,17.6,9.5,15,21.8c-2.5,11.8-5.2,15.1-13.9,16.1c-7.8,0.9-10.3-2.3-7.6-15l1.7-8l-33.6,10.8c-5.7,28.8,2.8,43,31.6,39.8
				l3-0.3c28.9-3.2,44.4-19.1,50.9-49.5C216.5,251.2,206.5,245.5,186.8,235.8z"/>
		</g>
		<polygon id="stella_3_" fill="#FF0082" points="596.1,221.8 613.9,243.7 597.6,278.8 634.9,260.3 661.4,278.4 662,243.5 
			688.7,220.8 658.4,215.6 651.1,184.3 627.8,216.9 		"/>
		<polygon fill="#F0FF46" points="662.6,42 638.1,174.8 667,165.6 710.2,26.7 		"/>
	</g>
</g>
</svg>
