<svg id="Livello_1" data-name="Livello 1" xmlns="http://www.w3.org/2000/svg" viewBox="0 0 2076.189 500.305"><title>SuperTennis_-_Logo_2016</title><path d="M155.985,150.7a67.529,67.529,0,0,0-22.5-13.8,82.54,82.54,0,0,0-28.1-5.2,103.535,103.535,0,0,0-28.6,3.7,84.321,84.321,0,0,0-25.8,11.8,67.67,67.67,0,0,0-19,19.8,57.921,57.921,0,0,0-8.6,27.5c-.6,9.5.8,17.8,4.3,24.8a59.043,59.043,0,0,0,14.3,18.4,88.182,88.182,0,0,0,20.5,13.3,215.871,215.871,0,0,0,23.2,9.3c5.4,1.8,10.9,3.7,16.4,5.8a68.007,68.007,0,0,1,14.9,7.9,33.533,33.533,0,0,1,10.2,11.7c2.4,4.6,3.3,10.4,2.4,17.2a36.272,36.272,0,0,1-6.3,17.2,43.2,43.2,0,0,1-12.5,11.6,51.218,51.218,0,0,1-16.6,6.4,79.98,79.98,0,0,1-18.1,1.8,65.6,65.6,0,0,1-19.3-3,42.349,42.349,0,0,1-15.2-8.4,36.179,36.179,0,0,1-9.6-13.7c-2.2-5.4-3.1-11.8-2.6-19.2l-29.3-.2c-.5,10.9,1.2,20.6,5.1,29a61.992,61.992,0,0,0,16.3,21.5,73.9,73.9,0,0,0,24.3,13.5,90.654,90.654,0,0,0,29.1,4.9,110.67,110.67,0,0,0,29.1-3.3,84.377,84.377,0,0,0,26.2-11.2,66.766,66.766,0,0,0,19.5-19.4q7.8-11.7,9-27.9c.7-10-.6-18.6-3.9-26a57.34,57.34,0,0,0-13.9-19.1,88.332,88.332,0,0,0-20.7-13.6,225.8,225.8,0,0,0-24.4-9.8c-4.8-1.6-9.8-3.4-15.2-5.4a62.624,62.624,0,0,1-14.5-7.7,37.291,37.291,0,0,1-10.5-11.2c-2.7-4.4-3.6-9.7-2.9-15.9a37.474,37.474,0,0,1,5.9-17.1,41.786,41.786,0,0,1,11.9-11.8,52.315,52.315,0,0,1,15.8-6.9,71.238,71.238,0,0,1,17.9-2c13.9.2,24.5,4.2,31.7,11.8,7.3,7.7,10.5,18.4,9.7,32.2h29.4a69.15,69.15,0,0,0-4.4-28.2,61.977,61.977,0,0,0-14.6-21.1" fill="#cdda00"/><path d="M332.485,134.9l-26.1,153.6a70.791,70.791,0,0,1-6.9,21.7,55.374,55.374,0,0,1-12.8,16.5,54.465,54.465,0,0,1-18,10.4,61.607,61.607,0,0,1-22.6,3.1c-7.8-.2-14.4-1.6-19.9-4.3a34.547,34.547,0,0,1-13.3-10.8,38.043,38.043,0,0,1-6.8-16.2,68.509,68.509,0,0,1-.6-20.4l26-153.6h-28.8l-26.1,153.4c-1.4,11.3-.7,21.6,2,30.9a60.916,60.916,0,0,0,13.1,24,60.189,60.189,0,0,0,22.6,15.6,82.991,82.991,0,0,0,30.3,5.9,98.261,98.261,0,0,0,33.4-5,86.96,86.96,0,0,0,27.5-15.3,82.6,82.6,0,0,0,19.9-24.3,93.508,93.508,0,0,0,10.5-32l26.1-153.3-29.5.1Z" fill="#cdda00"/><path d="M516.385,234.1c5-8.8,8-19.2,9-31.1.9-10.7-.1-20.2-3.1-28.6a54.339,54.339,0,0,0-13.5-21.2,60.486,60.486,0,0,0-21.9-13.3,87.739,87.739,0,0,0-28.2-5l-79.2-.2-39.4,226.6h29.3l15.4-88.7,53.8.2a122.842,122.842,0,0,0,31.9-4.1,78.575,78.575,0,0,0,26.7-12.7,67.859,67.859,0,0,0,19.2-21.9m-20.1-30.9a51.222,51.222,0,0,1-6.4,20,48.45,48.45,0,0,1-12.5,14.1,54.606,54.606,0,0,1-17.3,8.4,73.43,73.43,0,0,1-20.7,2.8l-50.4-.1,15.4-88.9,53.7.2a49.979,49.979,0,0,1,17.5,3.5,32.683,32.683,0,0,1,19.9,22.3,48.682,48.682,0,0,1,.8,17.7" fill="#cdda00"/><polygon points="655.385 361.4 659.785 337 548.985 337 562.985 256.7 658.185 256.7 662.385 232.3 567.185 232.3 579.785 159.4 688.885 159.4 693.185 134.8 554.885 134.8 515.485 361.4 655.385 361.4" fill="#cdda00"/><polygon points="1490.185 225.2 1460.585 396.2 1396.085 225.2 1333.885 225.2 1286.985 496.1 1350.685 496.1 1380.485 325.1 1445.185 496.1 1506.685 496.1 1553.785 225.2 1490.185 225.2" fill="#cdda00"/><polygon points="1727.485 225.2 1697.885 396.2 1633.385 225.2 1571.285 225.2 1524.385 496.1 1587.985 496.1 1617.785 325.1 1682.485 496.1 1744.085 496.1 1791.085 225.2 1727.485 225.2" fill="#cdda00"/><polygon points="1808.585 225.2 1761.485 496.1 1825.085 496.1 1871.985 225.2 1808.585 225.2" fill="#cdda00"/><path d="M2034.485,365.8a112.369,112.369,0,0,0-25.3-18.1,264.229,264.229,0,0,0-29.7-13.4c-3.6-1.4-7.9-3-12.7-4.8a70.314,70.314,0,0,1-13.7-6.9,34.673,34.673,0,0,1-10.4-9.7c-2.7-3.7-3.6-8.2-2.7-13.4a26.647,26.647,0,0,1,5.3-12.9,35.8,35.8,0,0,1,10.1-8.9,46.956,46.956,0,0,1,12.9-5.1,53.778,53.778,0,0,1,13.7-1.5c11,.3,19,3.5,23.9,9.8s7.2,14.5,7,24.8l63.3.2c.1-13.3-2.1-25.1-6.6-35.5a72.622,72.622,0,0,0-18.9-26.2,86.849,86.849,0,0,0-28.6-16.5,114.044,114.044,0,0,0-35.6-6.1,157.962,157.962,0,0,0-24.6,1.6,136.453,136.453,0,0,0-24.5,5.8,121.465,121.465,0,0,0-22.6,10.3,81.544,81.544,0,0,0-18.8,15.1,73.386,73.386,0,0,0-13.2,19.9,66.885,66.885,0,0,0-5.8,24.9c-.6,11.9,1.3,22.4,5.8,31.3a77.132,77.132,0,0,0,18.1,23.6,118.9,118.9,0,0,0,25.9,17.5,293.737,293.737,0,0,0,28.9,12.9c4.6,1.7,9.3,3.6,14.2,5.7a62.842,62.842,0,0,1,13,7.4,30.523,30.523,0,0,1,8.9,10.4c2.1,4.1,2.7,9.1,1.7,15.1a31.028,31.028,0,0,1-5,12.5,32.41,32.41,0,0,1-9.1,8.6,40.348,40.348,0,0,1-11.9,4.9,59.211,59.211,0,0,1-13.4,1.6c-14.4,0-24.7-3.5-30.9-10.6s-9-17.6-8.4-31.6l-63.8-.2c-.3,14.9,2.2,28,7.3,39.4a80.1,80.1,0,0,0,21.3,28.6,95.982,95.982,0,0,0,32.1,17.6,132.706,132.706,0,0,0,39.4,6.4,153.529,153.529,0,0,0,36.9-4.1,107.665,107.665,0,0,0,33.2-13.7,81.1,81.1,0,0,0,24.6-24.2c6.5-9.9,10.1-21.7,11-35.6.8-12.3-1-23-5-32.3a78.205,78.205,0,0,0-17.3-24.6" fill="#cdda00"/><path d="M1271.185,381.3l8.4-48.5h-99.7l10.1-57.1h117.9l8.7-50.4h-382l.1-.1c.4-.9.9-1.8,1.3-2.7.8-1.7,1.7-3.3,2.4-5l3.3-7.7c.8-1.8,1.5-3.6,2.3-5.4,1.4-3.3,2.8-6.5,4.1-9.9l5.5-15.1c.3-.9.7-1.7,1-2.6.6-1.6,1.2-3.2,1.7-4.9l6.8-22c.7-2.9,1.4-5.8,2.2-8.7,1.7-6.7,3.3-13,4.6-19.3l2.7-13.8c.8-4.2,1.6-8.2,2.1-12.2.4-2.9.8-5.8,1.2-8.6.7-5.2,1.4-10.2,1.8-15l1.7-20.9.6-25.3-1-25.8-4.7-.3-2.3,25.6-3.2,24.6-3.5,20.2c-2.9,15.1-6.8,31.1-11.3,47.5-1.7,5.9-3.6,11.8-5.7,18.1l-2.7,8.4-7.7,20.9c-.6,1.5-1.2,3-1.9,4.5a26.043,26.043,0,0,0-1,2.5l-6.1,14.3c-1.4,3.1-2.8,6.1-4.3,9.1-.8,1.7-1.7,3.5-2.5,5.2-3,6.6-6.4,12.9-10,19.6-1.7,3.1-3.3,6.2-5,9.3a585.863,585.863,0,0,1-37.5,57,548.6,548.6,0,0,1-45.2,52l-27.5-75a93.063,93.063,0,0,0,19.5-9.6,75.276,75.276,0,0,0,16-13.6,69.4,69.4,0,0,0,11.3-17.4,62.923,62.923,0,0,0,5.3-21.3c1.1-11,.1-20.6-2.9-28.9a51.292,51.292,0,0,0-13.6-20.7,60.012,60.012,0,0,0-22.1-12.6,99.021,99.021,0,0,0-28.6-4.6l-71-.1-39.4,226.6h29.4l15.9-91.7h52.3l31.6,91.1c-9.7,8.5-19.7,16.9-30.2,24.9a585.891,585.891,0,0,1-56.9,37.5l-9,4.8c-6.8,3.7-13.3,7.2-20.1,10.3-1.7.8-3.5,1.7-5.2,2.5-3.1,1.5-6.1,3-9.1,4.3l-14.3,6.1c-.9.4-1.7.7-2.6,1.1-1.5.6-2.9,1.3-4.4,1.8l-20.8,7.7c-2.9.9-5.7,1.9-8.5,2.8-6.2,2.1-12.1,4-18,5.6-16.2,4.6-32.2,8.4-47.4,11.3l-20.1,3.5-17.3,2.3-33,3.3.1,4.5,19.2.8,6.7.2,25.4-.6,20.7-1.7c4.9-.4,9.8-1.1,15-1.8,2.8-.4,5.7-.8,8.6-1.2,3.9-.4,7.7-1.2,11.8-2l14.3-2.8c6.3-1.3,12.6-2.9,19.3-4.6,2.8-.7,5.7-1.5,8.7-2.2l21.9-6.8c1.6-.5,3.3-1.1,4.9-1.7a27.729,27.729,0,0,0,2.6-1l15.1-5.5c3.3-1.3,6.6-2.7,9.9-4.1,1.8-.8,3.6-1.5,5.4-2.3l7.7-3.3,5.1-2.4c.9-.5,1.7-.9,2.6-1.3l15.5-7.7a520.941,520.941,0,0,0,60.8-37.8,534.313,534.313,0,0,0,56.2-48.1,563.064,563.064,0,0,0,48.1-56.2l10.4-14.8c2.4-3.3,4.5-6.8,6.6-10.1.1-.2.3-.5.4-.7h77L945.385,496h63.8l35.6-205.5-28.6-15h31.2v0h78.9l-38.3,220.6h181.4l8.7-50.2h-117.8l11.4-64.6Zm-507.4-135.8-43-.2,14.9-85.9,45.3.2a56.3,56.3,0,0,1,17.6,3.1,32.7,32.7,0,0,1,12.8,8.1,29.616,29.616,0,0,1,7.2,13,43.632,43.632,0,0,1,.9,17.9,45.648,45.648,0,0,1-6.5,18.9,50.031,50.031,0,0,1-12.6,13.7,54.925,54.925,0,0,1-17,8.3,63.709,63.709,0,0,1-19.6,2.9" fill="#cdda00"/></svg>