<svg xmlns="http://www.w3.org/2000/svg" xmlns:xlink="http://www.w3.org/1999/xlink" width="48.65" height="48.959" viewBox="0 0 48.65 48.959">
  <defs>
    <clipPath id="clip-path">
      <path id="Clip_14" data-name="Clip 14" d="M0,0H21.663V22.791H0Z" transform="translate(0.116 0.238)" fill="none"/>
    </clipPath>
    <clipPath id="clip-path-2">
      <path id="Clip_18" data-name="Clip 18" d="M2.347.269C2.707,8.041,2.564,19.084,0,25.263H0a4.1,4.1,0,0,0,1.368.5h0c3.432.457,7.781-2.544,12.1-6.853h0c-.827-2.668-.568-4.98-.778-5.446h0c-.138-.3-.456-.111-.7.08h0c-.191.149-.334.3-.309.21h0c.833-2.827.179-3.261.179-3.261h0c-.251-.253-.682-.052-1.013.151h0c-.3.182-.516.366-.442.209h0c.441-1.185.8-3.872.06-4.332h0c-.342-.21-.717.007-1.009.223h0c-.246.183-.433.366-.489.291h0c.2-3.537-1.028-3.678-1.028-3.678h0c-.477-.042-.821,1.207-.893,1.26h0C5.833-1.267,5.1.78,5.1.78h0s-.6,4.667-.58,4.173h0C3.769.775,3.1,0,2.712,0h0c-.229,0-.364.269-.364.269" transform="translate(0.42 0.041)" fill="none"/>
    </clipPath>
    <linearGradient id="linear-gradient" y1="0.483" x2="1" y2="0.483" gradientUnits="objectBoundingBox">
      <stop offset="0" stop-color="#2aac75"/>
      <stop offset="1" stop-color="#1b5a9c"/>
    </linearGradient>
    <clipPath id="clip-path-3">
      <path id="Clip_21" data-name="Clip 21" d="M6.978,6.662c-.814,1.485-1.709,3.435-2,4.026h0c.683-2.763.542-4.4.452-9.075h0c-3.576,5.909-1.515,8.366-.806,9.9h0c-.5,1.149-.972,2.6-1.049,2.839h0c-.26-1.976-1.92-4.094-3.1-8.531h0C-1.148,11.939,1.841,15,3.106,16.13h0c-.038.166-.076.332-.115.5h0c-.033.171-.073.382-.112.627h0c0,.03-.009.059-.014.09h0c0,.032-.01.067-.014.1h0c-.013.089-.026.178-.038.267h0a16.486,16.486,0,0,0-.081,3.566h0a22.34,22.34,0,0,0-1.638,1.968h0A5.829,5.829,0,0,1,3,23.011H3a10.292,10.292,0,0,0,1.875,4.1h0c.064.079.125.154.181.224h0l.023.026h0a6.975,6.975,0,0,0,.511.538h0a.331.331,0,0,0,.042.038h0c.1.08.168.12.19.111h0l.008-.007c.006-.015-.007-.051-.049-.115h0a14.3,14.3,0,0,1-1.8-4.758h0c2.346.714,3.523,3.554,4.811,7.007h0c1.447,3.879,3.035,8.526,6.584,11.8h0a12.071,12.071,0,0,0,1.511,1.217h0c6.327,4.341,16.1,2.7,16.758,2.6h0a18.468,18.468,0,0,0,7.783,2.094h.009c1.209,0,1.909-.237,1.937-.477h0c.305-.482-1.763-1.445-1.763-1.445h0s2.643.688,2.643-.034h0c0-.723-1.8-1.274-1.694-1.377h0a2.03,2.03,0,0,1,.565-.006h0c.723.028,1.875.056,1.875-.476h0c.069-1.067-1.525-1.41-1.525-1.41h0s2.169-.068,2.2-.86h0c0-1.067-2.3-.861-1.592-1.377h0c2.609-1.411-.136-1.79-3.865-1.376h0a24.361,24.361,0,0,1-7.027-.5h0c-.949-.22-1.348-.435-.7-.5h0c1.2-.12,5.2-2.5,8.27-6.7h0q.081-.111.162-.226h0c.367-.516.719-1.058,1.049-1.625h0a29.309,29.309,0,0,0,1.936-4.591h0c.529-1.195,1.745-1.456,1.94-2.442h0c.09-.629-1.291-.345-1.087-.482h0c2.746-1.859,2.2-2.753,2.2-2.753h0c-.066-.517-.874-.5-1.318-.491h0c-.236.007-.37.014-.24-.058h0c1.152-.448,3.185-3.406,2.982-4.4h0c-.2-1-1.526-.55-1.526-.792h0c2.645-3.235,1.594-3.991,1.594-3.991h0c-.273-.447-1.594.586-1.695.586h0c3.017-6.264.881-5,.881-5h0s-3.8,4.038-3.435,3.579h0c3.525-7.157,1.266-5.964,1.266-5.964h0a121.114,121.114,0,0,1-13.15,16.844h0c-4.386,4.49-8.792,7.608-12.249,7.106h0A4.082,4.082,0,0,1,18.7,26.11h0c-4.234-2.484-8.223-11.97-15.137-5.651h0c.01-.182.032-.586.057-1.018h0a18.949,18.949,0,0,1,.141-2.159h0c.046-.375.1-.757.172-1.146h0c1.761-.224,4.869-.124,7.682-6.935h0C7.5,12.113,6.065,12.968,4.04,15.5h0a5.033,5.033,0,0,1,.139-.629h0c.31-1.289,1-3.284,1.206-3.874h0c.007-.015.012-.028.019-.043h0C6.93,10.736,10.5,9.8,12.6,4.989h0A43.376,43.376,0,0,0,6.116,9.326h0c.107-.247,1.21-2.373,1.21-2.373h0C9.415,6.146,9.582,4.477,11.952,0h0C7.232,3.117,7.016,5.6,6.978,6.662" transform="translate(0.288 0.11)" fill="none"/>
    </clipPath>
    <linearGradient id="linear-gradient-2" x1="0" y1="0.5" x2="1" y2="0.5" xlink:href="#linear-gradient"/>
  </defs>
  <g id="Group_23" data-name="Group 23" transform="translate(-0.288 -1.031)">
    
    
    
    
    <g id="Group_19" data-name="Group 19" transform="translate(18 0.99)">
      <path id="Clip_18-2" data-name="Clip 18" d="M2.347.269C2.707,8.041,2.564,19.084,0,25.263H0a4.1,4.1,0,0,0,1.368.5h0c3.432.457,7.781-2.544,12.1-6.853h0c-.827-2.668-.568-4.98-.778-5.446h0c-.138-.3-.456-.111-.7.08h0c-.191.149-.334.3-.309.21h0c.833-2.827.179-3.261.179-3.261h0c-.251-.253-.682-.052-1.013.151h0c-.3.182-.516.366-.442.209h0c.441-1.185.8-3.872.06-4.332h0c-.342-.21-.717.007-1.009.223h0c-.246.183-.433.366-.489.291h0c.2-3.537-1.028-3.678-1.028-3.678h0c-.477-.042-.821,1.207-.893,1.26h0C5.833-1.267,5.1.78,5.1.78h0s-.6,4.667-.58,4.173h0C3.769.775,3.1,0,2.712,0h0c-.229,0-.364.269-.364.269" transform="translate(0.42 0.041)" fill="none"/>
      <g id="Group_19-2" data-name="Group 19" clip-path="url(#clip-path-2)">
        <path id="Fill_17" data-name="Fill 17" d="M2.347.269C2.707,8.041,2.564,19.084,0,25.263H0a4.1,4.1,0,0,0,1.368.5h0c3.432.457,7.781-2.544,12.1-6.853h0c-.827-2.668-.568-4.98-.778-5.446h0c-.138-.3-.456-.111-.7.08h0c-.191.149-.334.3-.309.21h0c.833-2.827.179-3.261.179-3.261h0c-.251-.253-.682-.052-1.013.151h0c-.3.182-.516.366-.442.209h0c.441-1.185.8-3.872.06-4.332h0c-.342-.21-.717.007-1.009.223h0c-.246.183-.433.366-.489.291h0c.2-3.537-1.028-3.678-1.028-3.678h0c-.477-.042-.821,1.207-.893,1.26h0C5.833-1.267,5.1.78,5.1.78h0s-.6,4.667-.58,4.173h0C3.769.775,3.1,0,2.712,0h0c-.229,0-.364.269-.364.269" transform="translate(0.42 0.041)" fill="url(#linear-gradient)"/>
      </g>
    </g>
    <g id="Group_22" data-name="Group 22" transform="translate(0 0.99)">
      <path id="Clip_21-2" data-name="Clip 21" d="M6.978,6.662c-.814,1.485-1.709,3.435-2,4.026h0c.683-2.763.542-4.4.452-9.075h0c-3.576,5.909-1.515,8.366-.806,9.9h0c-.5,1.149-.972,2.6-1.049,2.839h0c-.26-1.976-1.92-4.094-3.1-8.531h0C-1.148,11.939,1.841,15,3.106,16.13h0c-.038.166-.076.332-.115.5h0c-.033.171-.073.382-.112.627h0c0,.03-.009.059-.014.09h0c0,.032-.01.067-.014.1h0c-.013.089-.026.178-.038.267h0a16.486,16.486,0,0,0-.081,3.566h0a22.34,22.34,0,0,0-1.638,1.968h0A5.829,5.829,0,0,1,3,23.011H3a10.292,10.292,0,0,0,1.875,4.1h0c.064.079.125.154.181.224h0l.023.026h0a6.975,6.975,0,0,0,.511.538h0a.331.331,0,0,0,.042.038h0c.1.08.168.12.19.111h0l.008-.007c.006-.015-.007-.051-.049-.115h0a14.3,14.3,0,0,1-1.8-4.758h0c2.346.714,3.523,3.554,4.811,7.007h0c1.447,3.879,3.035,8.526,6.584,11.8h0a12.071,12.071,0,0,0,1.511,1.217h0c6.327,4.341,16.1,2.7,16.758,2.6h0a18.468,18.468,0,0,0,7.783,2.094h.009c1.209,0,1.909-.237,1.937-.477h0c.305-.482-1.763-1.445-1.763-1.445h0s2.643.688,2.643-.034h0c0-.723-1.8-1.274-1.694-1.377h0a2.03,2.03,0,0,1,.565-.006h0c.723.028,1.875.056,1.875-.476h0c.069-1.067-1.525-1.41-1.525-1.41h0s2.169-.068,2.2-.86h0c0-1.067-2.3-.861-1.592-1.377h0c2.609-1.411-.136-1.79-3.865-1.376h0a24.361,24.361,0,0,1-7.027-.5h0c-.949-.22-1.348-.435-.7-.5h0c1.2-.12,5.2-2.5,8.27-6.7h0q.081-.111.162-.226h0c.367-.516.719-1.058,1.049-1.625h0a29.309,29.309,0,0,0,1.936-4.591h0c.529-1.195,1.745-1.456,1.94-2.442h0c.09-.629-1.291-.345-1.087-.482h0c2.746-1.859,2.2-2.753,2.2-2.753h0c-.066-.517-.874-.5-1.318-.491h0c-.236.007-.37.014-.24-.058h0c1.152-.448,3.185-3.406,2.982-4.4h0c-.2-1-1.526-.55-1.526-.792h0c2.645-3.235,1.594-3.991,1.594-3.991h0c-.273-.447-1.594.586-1.695.586h0c3.017-6.264.881-5,.881-5h0s-3.8,4.038-3.435,3.579h0c3.525-7.157,1.266-5.964,1.266-5.964h0a121.114,121.114,0,0,1-13.15,16.844h0c-4.386,4.49-8.792,7.608-12.249,7.106h0A4.082,4.082,0,0,1,18.7,26.11h0c-4.234-2.484-8.223-11.97-15.137-5.651h0c.01-.182.032-.586.057-1.018h0a18.949,18.949,0,0,1,.141-2.159h0c.046-.375.1-.757.172-1.146h0c1.761-.224,4.869-.124,7.682-6.935h0C7.5,12.113,6.065,12.968,4.04,15.5h0a5.033,5.033,0,0,1,.139-.629h0c.31-1.289,1-3.284,1.206-3.874h0c.007-.015.012-.028.019-.043h0C6.93,10.736,10.5,9.8,12.6,4.989h0A43.376,43.376,0,0,0,6.116,9.326h0c.107-.247,1.21-2.373,1.21-2.373h0C9.415,6.146,9.582,4.477,11.952,0h0C7.232,3.117,7.016,5.6,6.978,6.662" transform="translate(0.288 0.11)" fill="none"/>
      <g id="Group_22-2" data-name="Group 22" clip-path="url(#clip-path-3)">
        <path id="Fill_20" data-name="Fill 20" d="M6.978,6.662c-.814,1.485-1.709,3.435-2,4.026h0c.683-2.763.542-4.4.452-9.075h0c-3.576,5.909-1.515,8.366-.806,9.9h0c-.5,1.149-.972,2.6-1.049,2.839h0c-.26-1.976-1.92-4.094-3.1-8.531h0C-1.148,11.939,1.841,15,3.106,16.13h0c-.038.166-.076.332-.115.5h0c-.033.171-.073.382-.112.627h0c0,.03-.009.059-.014.09h0c0,.032-.01.067-.014.1h0c-.013.089-.026.178-.038.267h0a16.486,16.486,0,0,0-.081,3.566h0a22.34,22.34,0,0,0-1.638,1.968h0A5.829,5.829,0,0,1,3,23.011H3a10.292,10.292,0,0,0,1.875,4.1h0c.064.079.125.154.181.224h0l.023.026h0a6.975,6.975,0,0,0,.511.538h0a.331.331,0,0,0,.042.038h0c.1.08.168.12.19.111h0l.008-.007c.006-.015-.007-.051-.049-.115h0a14.3,14.3,0,0,1-1.8-4.758h0c2.346.714,3.523,3.554,4.811,7.007h0c1.447,3.879,3.035,8.526,6.584,11.8h0a12.071,12.071,0,0,0,1.511,1.217h0c6.327,4.341,16.1,2.7,16.758,2.6h0a18.468,18.468,0,0,0,7.783,2.094h.009c1.209,0,1.909-.237,1.937-.477h0c.305-.482-1.763-1.445-1.763-1.445h0s2.643.688,2.643-.034h0c0-.723-1.8-1.274-1.694-1.377h0a2.03,2.03,0,0,1,.565-.006h0c.723.028,1.875.056,1.875-.476h0c.069-1.067-1.525-1.41-1.525-1.41h0s2.169-.068,2.2-.86h0c0-1.067-2.3-.861-1.592-1.377h0c2.609-1.411-.136-1.79-3.865-1.376h0a24.361,24.361,0,0,1-7.027-.5h0c-.949-.22-1.348-.435-.7-.5h0c1.2-.12,5.2-2.5,8.27-6.7h0q.081-.111.162-.226h0c.367-.516.719-1.058,1.049-1.625h0a29.309,29.309,0,0,0,1.936-4.591h0c.529-1.195,1.745-1.456,1.94-2.442h0c.09-.629-1.291-.345-1.087-.482h0c2.746-1.859,2.2-2.753,2.2-2.753h0c-.066-.517-.874-.5-1.318-.491h0c-.236.007-.37.014-.24-.058h0c1.152-.448,3.185-3.406,2.982-4.4h0c-.2-1-1.526-.55-1.526-.792h0c2.645-3.235,1.594-3.991,1.594-3.991h0c-.273-.447-1.594.586-1.695.586h0c3.017-6.264.881-5,.881-5h0s-3.8,4.038-3.435,3.579h0c3.525-7.157,1.266-5.964,1.266-5.964h0a121.114,121.114,0,0,1-13.15,16.844h0c-4.386,4.49-8.792,7.608-12.249,7.106h0A4.082,4.082,0,0,1,18.7,26.11h0c-4.234-2.484-8.223-11.97-15.137-5.651h0c.01-.182.032-.586.057-1.018h0a18.949,18.949,0,0,1,.141-2.159h0c.046-.375.1-.757.172-1.146h0c1.761-.224,4.869-.124,7.682-6.935h0C7.5,12.113,6.065,12.968,4.04,15.5h0a5.033,5.033,0,0,1,.139-.629h0c.31-1.289,1-3.284,1.206-3.874h0c.007-.015.012-.028.019-.043h0C6.93,10.736,10.5,9.8,12.6,4.989h0A43.376,43.376,0,0,0,6.116,9.326h0c.107-.247,1.21-2.373,1.21-2.373h0C9.415,6.146,9.582,4.477,11.952,0h0C7.232,3.117,7.016,5.6,6.978,6.662" transform="translate(0.288 0.11)" fill="url(#linear-gradient-2)"/>
      </g>
    </g>
  </g>
</svg>