<svg version="1.1" xmlns="http://www.w3.org/2000/svg" xmlns:xlink="http://www.w3.org/1999/xlink" width="289.06609" height="290.8442" viewBox="0,0,289.06609,290.8442"><g transform="translate(-95.46696,-34.5779)"><g data-paper-data="{&quot;isPaintingLayer&quot;:true}" fill="#FFF" fill-rule="evenodd" stroke="none" stroke-width="1" stroke-linecap="butt" stroke-linejoin="miter" stroke-miterlimit="10" stroke-dasharray="" stroke-dashoffset="0" style="mix-blend-mode: normal"><path d="M241.53101,40.10015c-16.527,-3.066 -30.404,-5.551 -30.84,-5.522c-4.087,0.267 -59.554,11.181 -60.041,11.813c-0.343,0.445 -1.159,3.339 -1.815,6.431c-1.4,6.608 -0.424,5.897 -12.524,9.132c-12.999,3.476 -11.819,2.658 -13.44,9.316c-1.949,8.009 -1.062,7.288 -12.631,10.265c-13.341,3.432 -12.047,2.414 -13.395,10.529c-2.524,15.193 -1.472,46.6 2.266,67.653c11.187,63.01 48.338,121.039 102.128,159.52c10.671,7.634 9.386,7.296 14.603,3.84c26.222,-17.375 52.972,-44.46 70.98,-71.87l2.281,-3.471l2.895,3.471c31.683,37.989 92.584,15.958 92.535,-33.475c-0.031,-31.248 -26.216,-54.984 -57.211,-51.86c-6.024,0.608 -5.453,1.377 -4.117,-5.545c4.432,-22.964 5.324,-52.116 2.136,-69.857c-1.1,-6.117 -0.202,-5.5 -12.909,-8.871l-10.875,-2.884l-1.646,-6.563c-1.99,-7.93 -0.21,-6.528 -12.482,-9.84c-5.695,-1.538 -10.807,-2.932 -11.361,-3.099c-0.712,-0.214 -1.408,-2.072 -2.375,-6.337c-0.753,-3.319 -1.536,-6.297 -1.742,-6.618c-0.205,-0.322 -13.894,-3.093 -30.42,-6.158M193.24201,71.18315c3.115,-0.624 6.558,-1.158 7.649,-1.186l1.985,-0.051v107.481c0,71.068 -0.206,107.48 -0.609,107.48c-0.335,0 -2.408,-2.267 -4.607,-5.038c-11.857,-14.944 -20.921,-32.021 -28.332,-53.381l-3.425,-9.87l-6.704,4.214c-8.756,5.503 -9.534,5.436 -13.112,-1.119c-12.871,-23.585 -25.039,-71.613 -25.042,-98.854l-0.001,-5.575l4.486,-5.112c5.457,-6.219 10.617,-11.087 11.303,-10.663c0.279,0.172 0.682,6.026 0.897,13.009c0.975,31.734 6.728,62.608 15.652,83.993c2.16,5.176 2.678,5.478 5.746,3.358c1.823,-1.26 1.949,-1.551 1.509,-3.511c-5.156,-22.965 -7.804,-49.809 -8.262,-83.76l-0.343,-25.438l3.284,-1.912c4.444,-2.587 13.418,-6.9 13.721,-6.597c0.136,0.136 0.381,9.98 0.546,21.877c0.71,51.239 4.911,85.917 14.105,116.441c2.201,7.306 2.879,6.548 2.458,-2.749c-0.194,-4.282 -0.522,-37.781 -0.729,-74.442l-0.376,-66.657l1.268,-0.402c0.697,-0.222 3.817,-0.913 6.933,-1.536M219.97501,177.42715v-107.481h2.117c12.138,0 33.255,5.793 44.614,12.238c21.769,12.354 27.323,38.613 12.104,57.227c-1.335,1.633 -1.804,2.596 -1.263,2.596c2.165,0 8.518,3.946 11.36,7.056c5.071,5.548 7.211,14.155 6.146,24.717c-0.749,7.429 -1.037,8.273 -4.291,12.572c-5.385,7.115 -10.309,19.634 -10.324,26.249c-0.009,3.778 -12.344,21.586 -26.186,37.803c-5.602,6.564 -32.955,34.503 -33.779,34.503c-0.274,0 -0.498,-48.366 -0.498,-107.48M246.07601,91.31315c-2.767,-0.663 -5.925,-1.208 -7.017,-1.21l-1.984,-0.005v31.516c0,27.734 0.109,31.474 0.914,31.165c4.092,-1.571 18.104,-12.583 22.204,-17.452c16.323,-19.384 10.301,-38.16 -14.117,-44.014M273.11001,161.41015c-5.04,-5.04 -12.624,-3.085 -28.249,7.283l-7.786,5.167v34.224c0,30.913 0.092,34.149 0.951,33.436c0.523,-0.434 3.372,-3.697 6.331,-7.251c27.426,-32.935 39.099,-62.513 28.753,-72.859M297.53301,202.15915v-5.801h20.368h20.369l2.263,7.175c1.245,3.947 2.874,9.057 3.62,11.355l1.357,4.179l3.512,-11.171c4.193,-13.333 2.495,-11.611 11.24,-11.405l7.322,0.172l-7.743,21.374l-7.743,21.374h-6.608h-6.607l-3.161,-8.549c-1.738,-4.703 -4.339,-11.779 -5.78,-15.726l-2.619,-7.175h-3.903h-3.903v15.878v15.878h-7.023h-7.022v-15.878v-15.878h-3.97h-3.969v-5.802"/></g></g></svg>