<svg xmlns="http://www.w3.org/2000/svg" width="375" height="138.4" aria-hidden="true" data-bbox="64.123 147.75 243.864 90" data-type="color" viewBox="64.123 147.75 243.864 90"><g fill="#FFF"><path d="m86.623 178.297 6.484 4.25-.062.062c-1.406 2.399-3.305 4.278-5.688 5.641-2.374 1.367-4.945 2.047-7.703 2.047-2.156 0-4.18-.414-6.062-1.234a16.008 16.008 0 0 1-4.922-3.329 16.008 16.008 0 0 1-3.328-4.922c-.813-1.882-1.219-3.882-1.219-6 0-2.125.406-4.125 1.219-6a15.826 15.826 0 0 1 3.328-4.921 16.146 16.146 0 0 1 4.922-3.328c1.883-.82 3.906-1.235 6.062-1.235 2.758 0 5.329.684 7.704 2.047 2.382 1.355 4.28 3.234 5.687 5.64l.063.048-6.547 4.265-.063-.062c-.637-1.477-1.57-2.676-2.797-3.594-1.218-.914-2.57-1.375-4.047-1.375a6.88 6.88 0 0 0-3.03.687 7.594 7.594 0 0 0-2.423 1.86 9.35 9.35 0 0 0-1.625 2.703c-.398 1.012-.593 2.101-.593 3.266 0 1.156.195 2.234.593 3.234.407 1 .946 1.871 1.625 2.61a7.34 7.34 0 0 0 2.422 1.75 7.415 7.415 0 0 0 3.031.624 7.07 7.07 0 0 0 4.047-1.234c1.227-.82 2.16-1.973 2.797-3.453l.063-.11ZM127.716 159.75v30h-7.86v-15a7.98 7.98 0 0 0-.656-3.234 8.299 8.299 0 0 0-1.828-2.641 8.454 8.454 0 0 0-2.703-1.766 8.256 8.256 0 0 0-3.203-.64c-1.168 0-2.25.226-3.25.672a9.271 9.271 0 0 0-2.672 1.765 8.12 8.12 0 0 0-1.828 2.64 8.143 8.143 0 0 0-.657 3.267c0 1.117.22 2.171.657 3.171a8.511 8.511 0 0 0 1.828 2.641 9.106 9.106 0 0 0 2.672 1.813c1 .437 2.082.656 3.25.656 1.238 0 2.297-.219 3.172-.656h.062v.109l3 5.344-.063.062c-1.96 1.524-4.374 2.281-7.25 2.281-2.124 0-4.132-.402-6.015-1.203a15.586 15.586 0 0 1-4.922-3.297 16.008 16.008 0 0 1-3.328-4.922c-.813-1.882-1.219-3.882-1.219-6 0-2.164.406-4.187 1.219-6.062a15.844 15.844 0 0 1 3.328-4.906 15.983 15.983 0 0 1 4.922-3.344 14.908 14.908 0 0 1 6.016-1.234c2.07 0 3.89.39 5.453 1.172 1.562.78 2.898 1.914 4.015 3.39v-4.078ZM131.917 159.75h8.156v30h-8.156Zm27.719 3.484c1 1.243 1.718 2.805 2.156 4.688.445 1.875.672 4.195.672 6.953v14.875h-8.156v-14.875a52.81 52.81 0 0 0-.094-3.219c-.063-1.02-.278-1.914-.64-2.687-.356-.781-.934-1.39-1.735-1.828-.805-.446-1.946-.672-3.422-.672a8.535 8.535 0 0 0-3.89.906v.063l-.063-.063-2.938-5.219.047-.062c2.082-1.883 4.688-2.828 7.813-2.828 4.789 0 8.207 1.324 10.25 3.968M197.976 159.75v30h-7.86v-15a7.98 7.98 0 0 0-.656-3.234 8.299 8.299 0 0 0-1.828-2.641 8.454 8.454 0 0 0-2.703-1.766 8.256 8.256 0 0 0-3.203-.64c-1.168 0-2.25.226-3.25.672a9.271 9.271 0 0 0-2.672 1.765 8.12 8.12 0 0 0-1.828 2.64 8.143 8.143 0 0 0-.657 3.267c0 1.117.22 2.171.657 3.171a8.511 8.511 0 0 0 1.828 2.641 9.106 9.106 0 0 0 2.672 1.813c1 .437 2.082.656 3.25.656 1.238 0 2.297-.219 3.172-.656h.062v.109l3 5.344-.063.062c-1.96 1.524-4.374 2.281-7.25 2.281-2.124 0-4.132-.402-6.015-1.203a15.586 15.586 0 0 1-4.922-3.297 16.008 16.008 0 0 1-3.328-4.922c-.813-1.882-1.219-3.882-1.219-6 0-2.164.406-4.187 1.219-6.062a15.844 15.844 0 0 1 3.328-4.906 15.983 15.983 0 0 1 4.922-3.344 14.908 14.908 0 0 1 6.016-1.234c2.07 0 3.89.39 5.453 1.172 1.562.78 2.898 1.914 4.015 3.39v-4.078ZM202.24 147.75h7.921v42h-7.984ZM228.757 159.266c2.125 0 4.125.414 6 1.234a15.806 15.806 0 0 1 4.922 3.344 15.98 15.98 0 0 1 3.328 4.906c.82 1.875 1.234 3.898 1.234 6.063 0 1.156-.12 2.277-.36 3.359l-.062.125h-15.234l-3.844-6.125h11.406c-.562-1.676-1.496-3.055-2.796-4.14-1.305-1.083-2.836-1.626-4.594-1.626a7.247 7.247 0 0 0-3.063.672 7.834 7.834 0 0 0-2.484 1.766 8.259 8.259 0 0 0-1.656 2.64c-.399 1.024-.594 2.133-.594 3.328 0 .918.176 1.868.531 2.844.364.98.883 1.871 1.563 2.672a9.011 9.011 0 0 0 2.469 2.016c.957.543 2.035.812 3.234.812 1.082 0 2.07-.148 2.969-.453.906-.3 1.754-.973 2.547-2.016l.062-.062.125.063 6.953 3.062-.11.125c-1.437 2-3.273 3.563-5.5 4.688a15.465 15.465 0 0 1-7.046 1.671c-2.156 0-4.188-.402-6.094-1.203-1.898-.8-3.547-1.898-4.953-3.297a16.008 16.008 0 0 1-3.328-4.922c-.813-1.882-1.219-3.882-1.219-6 0-2.164.406-4.187 1.219-6.062a15.844 15.844 0 0 1 3.328-4.906c1.406-1.406 3.055-2.52 4.953-3.344 1.906-.82 3.938-1.234 6.094-1.234M79.717 195.266c2.125 0 4.125.414 6 1.234a15.806 15.806 0 0 1 4.922 3.344 15.98 15.98 0 0 1 3.328 4.906c.82 1.875 1.234 3.898 1.234 6.063 0 1.156-.12 2.277-.36 3.359l-.062.125H79.545l-3.844-6.125h11.407c-.563-1.676-1.497-3.055-2.797-4.14-1.305-1.083-2.836-1.626-4.594-1.626a7.247 7.247 0 0 0-3.063.672 7.834 7.834 0 0 0-2.484 1.766 8.259 8.259 0 0 0-1.656 2.64c-.399 1.024-.594 2.133-.594 3.328 0 .918.176 1.868.531 2.844.364.98.883 1.871 1.563 2.672a9.011 9.011 0 0 0 2.469 2.016c.957.543 2.035.812 3.234.812 1.082 0 2.07-.148 2.969-.453.906-.3 1.754-.973 2.546-2.016l.063-.062.125.063 6.953 3.062-.11.125c-1.437 2-3.273 3.563-5.5 4.688a15.465 15.465 0 0 1-7.046 1.671c-2.156 0-4.188-.402-6.094-1.203-1.898-.8-3.547-1.898-4.953-3.297a16.008 16.008 0 0 1-3.328-4.922c-.813-1.882-1.219-3.882-1.219-6 0-2.164.406-4.187 1.219-6.062a15.844 15.844 0 0 1 3.328-4.906c1.406-1.406 3.055-2.52 4.953-3.344 1.906-.82 3.938-1.234 6.094-1.234M128.556 195.75v30.188h-8.219V195.75Zm-12.594 22.438 2.876 5.218v.063c-2.086 1.844-4.665 2.765-7.735 2.765-4.887 0-8.351-1.32-10.39-3.968-1.875-2.352-2.813-6.114-2.813-11.282V195.75h8.219v15.234c0 1.086.031 2.125.094 3.125.062 1 .28 1.883.656 2.641.383.762.972 1.371 1.765 1.828.801.461 1.942.688 3.422.688.688 0 1.348-.098 1.985-.297a8.777 8.777 0 0 0 1.797-.781ZM156.641 196.953l-.718 1.203-3.063 5.453-.063-.062a8.426 8.426 0 0 0-4.25-1.14 8.415 8.415 0 0 0-2.953.515 7.952 7.952 0 0 0-2.453 1.453 8.71 8.71 0 0 0-1.828 2.188c-.5.835-.836 1.73-1 2.687v16.5h-8.156v-30h8.156v3.906c2.125-2.926 5.227-4.39 9.313-4.39 2.394 0 4.71.562 6.953 1.687ZM173.974 195.266c2.164 0 4.188.414 6.063 1.234a15.806 15.806 0 0 1 4.922 3.344 15.98 15.98 0 0 1 3.328 4.906c.82 1.875 1.234 3.875 1.234 6s-.414 4.125-1.234 6a16.146 16.146 0 0 1-3.328 4.922 15.842 15.842 0 0 1-4.922 3.328c-1.875.82-3.899 1.234-6.063 1.234-2.156 0-4.18-.414-6.062-1.234a16.008 16.008 0 0 1-4.922-3.328 16.008 16.008 0 0 1-3.328-4.922c-.813-1.875-1.219-3.875-1.219-6s.406-4.125 1.219-6a15.844 15.844 0 0 1 3.328-4.906 15.983 15.983 0 0 1 4.922-3.344c1.883-.82 3.906-1.234 6.062-1.234m0 23.828c1 0 1.926-.219 2.782-.656a7.46 7.46 0 0 0 2.28-1.829 8.815 8.815 0 0 0 1.563-2.703c.383-1.02.579-2.133.579-3.344 0-1.113-.196-2.18-.579-3.203a8.115 8.115 0 0 0-1.562-2.64 7.677 7.677 0 0 0-2.281-1.766 6.016 6.016 0 0 0-2.782-.656c-1 0-1.945.219-2.828.656a7.595 7.595 0 0 0-2.297 1.766 8.4 8.4 0 0 0-1.562 2.64 9.232 9.232 0 0 0-.563 3.203c0 1.211.188 2.325.563 3.344a9.143 9.143 0 0 0 1.562 2.703 7.383 7.383 0 0 0 2.297 1.828 6.292 6.292 0 0 0 2.828.657M210.095 195.266c2.164 0 4.207.414 6.125 1.234 1.914.824 3.582 1.945 5 3.36a15.68 15.68 0 0 1 3.36 4.952c.82 1.875 1.234 3.899 1.234 6.063 0 2.2-.414 4.262-1.235 6.188a15.464 15.464 0 0 1-3.359 5 15.806 15.806 0 0 1-5 3.359c-1.918.82-3.96 1.234-6.125 1.234-2.96 0-5.418-.804-7.375-2.406v-.063l3-5.515.063.062c1.082.48 2.18.72 3.296.72a8.433 8.433 0 0 0 3.297-.657 8.745 8.745 0 0 0 2.735-1.828 8.443 8.443 0 0 0 1.828-2.735 8.58 8.58 0 0 0 .656-3.359 8.26 8.26 0 0 0-.656-3.281 8.031 8.031 0 0 0-1.828-2.656 8.795 8.795 0 0 0-2.735-1.797 8.308 8.308 0 0 0-3.297-.672c-1.199 0-2.308.226-3.328.672a8.424 8.424 0 0 0-2.672 1.797 8.249 8.249 0 0 0-1.797 2.656 8.26 8.26 0 0 0-.656 3.281v26.875h-8.11v-42h8.11v4.078c2.156-3.039 5.313-4.562 9.469-4.562M261.036 195.75v30h-7.86v-15a7.98 7.98 0 0 0-.656-3.234 8.299 8.299 0 0 0-1.828-2.641 8.454 8.454 0 0 0-2.703-1.766 8.256 8.256 0 0 0-3.203-.64c-1.168 0-2.25.226-3.25.672a9.271 9.271 0 0 0-2.672 1.765 8.12 8.12 0 0 0-1.828 2.64 8.143 8.143 0 0 0-.657 3.267c0 1.117.22 2.171.657 3.171a8.511 8.511 0 0 0 1.828 2.641 9.106 9.106 0 0 0 2.672 1.813c1 .437 2.082.656 3.25.656 1.238 0 2.297-.219 3.172-.656h.062v.109l3 5.344-.063.062c-1.96 1.524-4.374 2.281-7.25 2.281-2.124 0-4.132-.402-6.015-1.203a15.586 15.586 0 0 1-4.922-3.297 16.008 16.008 0 0 1-3.328-4.922c-.813-1.882-1.219-3.882-1.219-6 0-2.164.406-4.187 1.219-6.062a15.844 15.844 0 0 1 3.328-4.906 15.983 15.983 0 0 1 4.922-3.344 14.908 14.908 0 0 1 6.016-1.234c2.07 0 3.89.39 5.453 1.172 1.562.78 2.898 1.914 4.015 3.39v-4.078ZM272.658 163.025v6.656h-4.454l-3.718-6.656Zm-9.188 16.61c0 .93.328 1.714.984 2.359a3.313 3.313 0 0 0 2.375.953h5.829v6.953h-5.829c-1.562 0-3.039-.285-4.421-.86a11.15 11.15 0 0 1-3.594-2.406 11.647 11.647 0 0 1-2.438-3.562c-.593-1.363-.89-2.828-.89-4.39v-9h-4.313v-6.657h4.313v-10.86h7.984ZM283.034 159.963l7.734 21.718-5.281 5.453L274.44 159.9h8.594Zm16.437-.063h8.516l-12.297 30h-6.969l2.469-6.906Zm0 0" data-color="1"/></g></svg>