<svg xmlns="http://www.w3.org/2000/svg" width="375" height="138.4" aria-hidden="true" data-bbox="64.123 147.75 243.864 90" data-type="color" viewBox="64.123 147.75 243.864 90"><g fill="#FFF"><path d="m86.623 178.297 6.484 4.25-.062.062c-1.406 2.399-3.305 4.278-5.688 5.641-2.374 1.367-4.945 2.047-7.703 2.047-2.156 0-4.18-.414-6.062-1.234a16 16 0 0 1-4.922-3.329 16 16 0 0 1-3.328-4.922q-1.22-2.823-1.219-6 0-3.188 1.219-6a15.8 15.8 0 0 1 3.328-4.921 16.2 16.2 0 0 1 4.922-3.328c1.883-.82 3.906-1.235 6.062-1.235 2.758 0 5.329.684 7.704 2.047q3.575 2.032 5.687 5.64l.063.048-6.547 4.265-.063-.062q-.956-2.216-2.797-3.594c-1.218-.914-2.57-1.375-4.047-1.375a6.9 6.9 0 0 0-3.03.687 7.6 7.6 0 0 0-2.423 1.86 9.4 9.4 0 0 0-1.625 2.703q-.595 1.518-.593 3.266c0 1.156.195 2.234.593 3.234q.608 1.5 1.625 2.61a7.3 7.3 0 0 0 2.422 1.75 7.4 7.4 0 0 0 3.031.624 7.07 7.07 0 0 0 4.047-1.234q1.841-1.231 2.797-3.453l.063-.11ZM127.716 159.75v30h-7.86v-15a8 8 0 0 0-.656-3.234 8.3 8.3 0 0 0-1.828-2.641 8.5 8.5 0 0 0-2.703-1.766 8.3 8.3 0 0 0-3.203-.64q-1.751.001-3.25.672a9.3 9.3 0 0 0-2.672 1.765 8.1 8.1 0 0 0-1.828 2.64 8.1 8.1 0 0 0-.657 3.267c0 1.117.22 2.171.657 3.171a8.5 8.5 0 0 0 1.828 2.641 9.1 9.1 0 0 0 2.672 1.813q1.499.656 3.25.656 1.858 0 3.172-.656h.062v.109l3 5.344-.063.062c-1.96 1.524-4.374 2.281-7.25 2.281-2.124 0-4.132-.402-6.015-1.203a15.6 15.6 0 0 1-4.922-3.297 16 16 0 0 1-3.328-4.922q-1.22-2.823-1.219-6 0-3.248 1.219-6.062a15.8 15.8 0 0 1 3.328-4.906 16 16 0 0 1 4.922-3.344 14.9 14.9 0 0 1 6.016-1.234q3.107 0 5.453 1.172c1.562.78 2.898 1.914 4.015 3.39v-4.078ZM131.917 159.75h8.156v30h-8.156Zm27.719 3.484q1.5 1.864 2.156 4.688c.445 1.875.672 4.195.672 6.953v14.875h-8.156v-14.875a53 53 0 0 0-.094-3.219q-.096-1.529-.64-2.687-.534-1.171-1.735-1.828-1.208-.67-3.422-.672a8.54 8.54 0 0 0-3.89.906v.063l-.063-.063-2.938-5.219.047-.062q3.124-2.826 7.813-2.828 7.184.001 10.25 3.968M197.976 159.75v30h-7.86v-15a8 8 0 0 0-.656-3.234 8.3 8.3 0 0 0-1.828-2.641 8.5 8.5 0 0 0-2.703-1.766 8.3 8.3 0 0 0-3.203-.64q-1.751.001-3.25.672a9.3 9.3 0 0 0-2.672 1.765 8.1 8.1 0 0 0-1.828 2.64 8.1 8.1 0 0 0-.657 3.267c0 1.117.22 2.171.657 3.171a8.5 8.5 0 0 0 1.828 2.641 9.1 9.1 0 0 0 2.672 1.813q1.499.656 3.25.656 1.858 0 3.172-.656h.062v.109l3 5.344-.063.062c-1.96 1.524-4.374 2.281-7.25 2.281-2.124 0-4.132-.402-6.015-1.203a15.6 15.6 0 0 1-4.922-3.297 16 16 0 0 1-3.328-4.922q-1.22-2.823-1.219-6 0-3.248 1.219-6.062a15.8 15.8 0 0 1 3.328-4.906 16 16 0 0 1 4.922-3.344 14.9 14.9 0 0 1 6.016-1.234q3.107 0 5.453 1.172c1.562.78 2.898 1.914 4.015 3.39v-4.078ZM202.24 147.75h7.921v42h-7.984ZM228.757 159.266q3.187.002 6 1.234a15.8 15.8 0 0 1 4.922 3.344 16 16 0 0 1 3.328 4.906c.82 1.875 1.234 3.898 1.234 6.063q0 1.735-.36 3.359l-.062.125h-15.234l-3.844-6.125h11.406q-.845-2.513-2.796-4.14-1.957-1.625-4.594-1.626a7.25 7.25 0 0 0-3.063.672 7.8 7.8 0 0 0-2.484 1.766 8.3 8.3 0 0 0-1.656 2.64c-.399 1.024-.594 2.133-.594 3.328q0 1.379.531 2.844.545 1.47 1.563 2.672a9 9 0 0 0 2.469 2.016q1.435.813 3.234.812c1.082 0 2.07-.148 2.969-.453q1.358-.45 2.547-2.016l.062-.062.125.063 6.953 3.062-.11.125q-2.157 3-5.5 4.688a15.5 15.5 0 0 1-7.046 1.671q-3.234 0-6.094-1.203-2.845-1.2-4.953-3.297a16 16 0 0 1-3.328-4.922q-1.22-2.823-1.219-6 0-3.248 1.219-6.062a15.8 15.8 0 0 1 3.328-4.906q2.108-2.109 4.953-3.344c1.906-.82 3.938-1.234 6.094-1.234M79.717 195.266q3.188.002 6 1.234a15.8 15.8 0 0 1 4.922 3.344 16 16 0 0 1 3.328 4.906q1.232 2.814 1.234 6.063 0 1.735-.36 3.359l-.062.125H79.545l-3.844-6.125h11.407q-.846-2.513-2.797-4.14-1.957-1.625-4.594-1.626a7.25 7.25 0 0 0-3.063.672 7.8 7.8 0 0 0-2.484 1.766 8.3 8.3 0 0 0-1.656 2.64c-.399 1.024-.594 2.133-.594 3.328q0 1.379.531 2.844.544 1.47 1.563 2.672a9 9 0 0 0 2.469 2.016q1.436.813 3.234.812c1.082 0 2.07-.148 2.969-.453q1.359-.45 2.546-2.016l.063-.062.125.063 6.953 3.062-.11.125q-2.157 3-5.5 4.688a15.5 15.5 0 0 1-7.046 1.671q-3.234 0-6.094-1.203-2.845-1.2-4.953-3.297a16 16 0 0 1-3.328-4.922q-1.22-2.823-1.219-6 0-3.248 1.219-6.062a15.8 15.8 0 0 1 3.328-4.906q2.108-2.108 4.953-3.344c1.906-.82 3.938-1.234 6.094-1.234M128.556 195.75v30.188h-8.219V195.75Zm-12.594 22.438 2.876 5.218v.063q-3.13 2.766-7.735 2.765-7.331.002-10.39-3.968-2.813-3.529-2.813-11.282V195.75h8.219v15.234c0 1.086.031 2.125.094 3.125.062 1 .28 1.883.656 2.641q.575 1.143 1.765 1.828 1.202.69 3.422.688 1.03 0 1.985-.297a8.8 8.8 0 0 0 1.797-.781ZM156.641 196.953l-.718 1.203-3.063 5.453-.063-.062a8.4 8.4 0 0 0-4.25-1.14 8.4 8.4 0 0 0-2.953.515 8 8 0 0 0-2.453 1.453 8.7 8.7 0 0 0-1.828 2.188c-.5.835-.836 1.73-1 2.687v16.5h-8.156v-30h8.156v3.906q3.186-4.39 9.313-4.39 3.59 0 6.953 1.687ZM173.974 195.266c2.164 0 4.188.414 6.063 1.234a15.8 15.8 0 0 1 4.922 3.344 16 16 0 0 1 3.328 4.906c.82 1.875 1.234 3.875 1.234 6s-.414 4.125-1.234 6a16.2 16.2 0 0 1-3.328 4.922 15.8 15.8 0 0 1-4.922 3.328c-1.875.82-3.899 1.234-6.063 1.234-2.156 0-4.18-.414-6.062-1.234a16 16 0 0 1-4.922-3.328 16 16 0 0 1-3.328-4.922q-1.22-2.812-1.219-6c.001-3.188.406-4.125 1.219-6a15.8 15.8 0 0 1 3.328-4.906 16 16 0 0 1 4.922-3.344q2.826-1.232 6.062-1.234m0 23.828q1.499 0 2.782-.656a7.5 7.5 0 0 0 2.28-1.829 8.8 8.8 0 0 0 1.563-2.703c.383-1.02.579-2.133.579-3.344 0-1.113-.196-2.18-.579-3.203a8.1 8.1 0 0 0-1.562-2.64 7.7 7.7 0 0 0-2.281-1.766 6 6 0 0 0-2.782-.656q-1.502 0-2.828.656a7.6 7.6 0 0 0-2.297 1.766 8.4 8.4 0 0 0-1.562 2.64 9.2 9.2 0 0 0-.563 3.203q0 1.816.563 3.344a9.1 9.1 0 0 0 1.562 2.703 7.4 7.4 0 0 0 2.297 1.828 6.3 6.3 0 0 0 2.828.657M210.095 195.266q3.247.002 6.125 1.234 2.872 1.237 5 3.36a15.7 15.7 0 0 1 3.36 4.952c.82 1.875 1.234 3.899 1.234 6.063q-.002 3.3-1.235 6.188a15.5 15.5 0 0 1-3.359 5 15.8 15.8 0 0 1-5 3.359c-1.918.82-3.96 1.234-6.125 1.234q-4.44-.001-7.375-2.406v-.063l3-5.515.063.062q1.623.72 3.296.72a8.4 8.4 0 0 0 3.297-.657 8.7 8.7 0 0 0 2.735-1.828 8.4 8.4 0 0 0 1.828-2.735 8.6 8.6 0 0 0 .656-3.359 8.3 8.3 0 0 0-.656-3.281 8 8 0 0 0-1.828-2.656 8.8 8.8 0 0 0-2.735-1.797 8.3 8.3 0 0 0-3.297-.672q-1.798.002-3.328.672a8.4 8.4 0 0 0-2.672 1.797 8.3 8.3 0 0 0-1.797 2.656 8.3 8.3 0 0 0-.656 3.281v26.875h-8.11v-42h8.11v4.078q3.235-4.56 9.469-4.562M261.036 195.75v30h-7.86v-15a8 8 0 0 0-.656-3.234 8.3 8.3 0 0 0-1.828-2.641 8.5 8.5 0 0 0-2.703-1.766 8.3 8.3 0 0 0-3.203-.64q-1.751.001-3.25.672a9.3 9.3 0 0 0-2.672 1.765 8.1 8.1 0 0 0-1.828 2.64 8.1 8.1 0 0 0-.657 3.267c0 1.117.22 2.171.657 3.171a8.5 8.5 0 0 0 1.828 2.641 9.1 9.1 0 0 0 2.672 1.813q1.499.656 3.25.656 1.858 0 3.172-.656h.062v.109l3 5.344-.063.062c-1.96 1.524-4.374 2.281-7.25 2.281-2.124 0-4.132-.402-6.015-1.203a15.6 15.6 0 0 1-4.922-3.297 16 16 0 0 1-3.328-4.922q-1.22-2.823-1.219-6 0-3.248 1.219-6.062a15.8 15.8 0 0 1 3.328-4.906 16 16 0 0 1 4.922-3.344 14.9 14.9 0 0 1 6.016-1.234q3.107 0 5.453 1.172c1.562.78 2.898 1.914 4.015 3.39v-4.078ZM272.658 163.025v6.656h-4.454l-3.718-6.656Zm-9.188 16.61q0 1.393.984 2.359a3.31 3.31 0 0 0 2.375.953h5.829v6.953h-5.829c-1.562 0-3.039-.285-4.421-.86a11.2 11.2 0 0 1-3.594-2.406 11.7 11.7 0 0 1-2.438-3.562q-.89-2.046-.89-4.39v-9h-4.313v-6.657h4.313v-10.86h7.984ZM283.034 159.963l7.734 21.718-5.281 5.453L274.44 159.9h8.594Zm16.437-.063h8.516l-12.297 30h-6.969l2.469-6.906Zm0 0" data-color="1"/></g></svg>