<svg xmlns="http://www.w3.org/2000/svg" xml:space="preserve" viewBox="0 0 298.7 216.1"><path d="M296.4 139.8c-2.6-1.2-4.7.5-5.9 2.4-1.3 1.9-23.1 38.1-39 36.6-8.8-.9-10.9-30.8-10.1-35.9 3-5.6 60.1-120.7 32.9-141.1-2.9-2.1-9-2.7-13.6.3C238 16.4 225.5 72.5 223.9 95c-.2 3.3-.7 6.7-.8 11.2-.9-.3-5.5-1.9-12-.9-12.5 1.8-22 9.1-28.5 16.6-15.3 3.4-17.4-15.5-19.9-15.5h-127v33.7l68.4-.1L70 199.3l29.3 16.8 57.6-99.8c1.5 4 6.1 13 17.4 17.7-.3.7-.6 1.3-.9 1.9-4 8.8-6.6 19.9-6.3 29.4.4 19.2 9.8 24.5 20.8 21 17-5.3 35.5-27.4 36.8-28.8.3 1.9.8 4.9 1.8 8.9 3.8 14.9 11.5 24 21.4 24.8 17.3 1.4 34.7-17.3 49.4-43.2 1.1-2.1 2.8-6.5-.9-8.2m-80.4 9.8c-3.4 3.7-23.3 28.8-32.4 25-5.6-2.3-4.6-24.4 14.8-43.2 7.2-7 17.2-12.1 23.9-10.6 0 4.7.3 15.8.5 20.1-1.4 2-3.5 5-6.8 8.7M267.5 16c14.5 2-13.1 78.5-27.5 107.4-1.2-19.7 10.4-109.7 27.5-107.4M41.7 157.9l-15.5 26.8v-3.8H5.4V158H.6v27.2h30s1.5-2.6 3.4-6h19.7c1.9 3.4 3.4 5.9 3.4 5.9h4.8L46 157.9zm-5.3 17c3.1-5.4 6.3-11.2 6.7-11.9l.7-1.2.7 1.2c.4.8 3.7 6.5 6.8 11.9z" style="fill:#e5004b"/></svg>