<svg xmlns="http://www.w3.org/2000/svg" xml:space="preserve" style="fill-rule:evenodd;clip-rule:evenodd;stroke-linejoin:round;stroke-miterlimit:1.41421" viewBox="0 0 74 50"><path d="M.99-.328a.6.6 0 0 1-.094.217l-.022.033-.011.016-.011.014Q.806.014.755.069L.656.176a.624.624 0 0 0-.148.229 1.315 1.315 0 0 0-.06.274L.436.822.433.895.432.967v.073l.001.196-.07-.1-.041-.062-.039-.064A1.6 1.6 0 0 1 .118.598 2 2 0 0 1 .075.362L.073.397a2.7 2.7 0 0 0 .128.945 3 3 0 0 0 .068.18l-.009.004-.039-.089A2.4 2.4 0 0 1 .053.783 2.7 2.7 0 0 1 .057.105Q.063.055.073.008l.049.009Q.12.033.119.051L.117.087v.071a1.7 1.7 0 0 0 .229.815l.007.011V.893L.355.819Q.357.745.363.67.369.596.383.521.396.447.421.373A.7.7 0 0 1 .58.108l.097-.109q.048-.053.089-.11l.011-.014.01-.014.019-.029.035-.059A.5.5 0 0 0 .888-.35a.3.3 0 0 0-.01-.186l-.013-.03-.016-.028a.3.3 0 0 0-.084-.094.23.23 0 0 0-.114-.045.4.4 0 0 0-.131.01l-.154.037.118-.102.009-.008.01-.01.019-.019.035-.04A1 1 0 0 0 .62-.952a.5.5 0 0 0 .061-.146q.005-.025.007-.052 0-.025-.003-.052L.68-1.228l-.003-.013-.004-.012a.2.2 0 0 0-.023-.046.2.2 0 0 0-.037-.035q-.022-.015-.046-.034a.2.2 0 0 1-.038-.045.28.28 0 0 1-.028-.112l.01-.001.012.054a.2.2 0 0 0 .023.048.1.1 0 0 0 .036.038q.021.014.047.028a.2.2 0 0 1 .046.039.2.2 0 0 1 .031.053l.006.014.004.014q.005.015.007.029a.3.3 0 0 1 .009.059.4.4 0 0 1-.014.118.6.6 0 0 1-.073.161l-.033.048-.004.006h.051a.33.33 0 0 1 .157.054.4.4 0 0 1 .115.118l.02.035.018.037A.4.4 0 0 1 1-.42a.5.5 0 0 1-.01.092" style="fill:url(#a);fill-rule:nonzero" transform="matrix(0 -23.65289 -23.6554 0 36.99 25.008)"/><path d="M.932-1.145.92-1.11l-.017.046a2 2 0 0 1-.056.121 1.1 1.1 0 0 1-.232.303q-.081.075-.161.156a1.2 1.2 0 0 0-.205.285l-.014.027-.014.027-.013.028-.007.013-.006.014-.02.054Q.17-.023.166-.008L.158.019a1 1 0 0 0-.033.229 1 1 0 0 0 0 .114q.003.057.009.111.006.055.014.106A3 3 0 0 0 .23.937a4 4 0 0 0 .075.236L.3 1.167l-.013-.018-.047-.073A1.6 1.6 0 0 1 .105.799 2 2 0 0 1 .042.601Q.029.547.019.489A1.5 1.5 0 0 1 0 .244Q.003.181.011.115A1 1 0 0 1 .04-.014l.011-.032.011-.032.028-.061.008-.015.007-.015.015-.028.016-.028.016-.029a1.3 1.3 0 0 1 .15-.207l.043-.046L.39-.55q.045-.04.089-.077l.087-.069.078-.067.035-.033.032-.034.03-.034.014-.016.026-.033.012-.017.023-.031q.043-.064.07-.111l.024-.043.017-.032.015-.026z" style="fill:url(#b);fill-rule:nonzero" transform="matrix(0 -19.33387 -19.33592 0 47.776 32.089)"/><path d="M.852.241v.003L.984.25v.065A5 5 0 0 0 .762.309H0V.241h.401V.238a.26.26 0 0 1-.13-.237c0-.168.127-.316.376-.316.205 0 .353.121.353.299a.27.27 0 0 1-.148.257M.507.235a.3.3 0 0 0 .055.006h.136c.019 0 .041-.006.06-.01A.244.244 0 0 0 .943 0c0-.158-.142-.245-.299-.245-.185 0-.315.091-.315.251 0 .107.07.2.178.229" style="fill:url(#c);fill-rule:nonzero" transform="matrix(0 -10.2033 -10.20439 0 4.409 48.654)"/><path d="M.918.276.849.246A.4.4 0 0 0 .92.007C.922-.22.733-.238.637-.238H.614C.618.15.484.346.263.346.135.346 0 .256 0 .065A.36.36 0 0 1 .159-.24v-.006L.022-.26v-.086q.112.014.227.014h.373C.793-.332 1-.28 1-.003a.5.5 0 0 1-.082.279M.279.246c.229 0 .261-.275.255-.484H.329a.2.2 0 0 0-.058.01.29.29 0 0 0-.191.283c0 .099.061.191.199.191" style="fill:url(#d);fill-rule:nonzero" transform="matrix(0 -7.43395 -7.43474 0 11.376 45.885)"/><path d="M.78.11v.004l.198.004v.09A7 7 0 0 0 .684.2H0V.104h.54A1 1 0 0 0 .633.096C.79.069.906-.026.906-.161Q.907-.187.902-.208h.094L1-.169C1-.035.902.067.78.11" style="fill:url(#e);fill-rule:nonzero" transform="matrix(0 -7.27105 -7.27182 0 17.603 45.722)"/><path d="M.492.448C.193.448 0 .257 0 .01c0-.213.151-.458.51-.458.293 0 .49.179.49.444C1 .233.821.448.492.448M.498.353c.205 0 .424-.112.424-.355 0-.251-.243-.351-.418-.351-.245 0-.424.158-.424.357 0 .195.179.349.418.349" style="fill:url(#f);fill-rule:nonzero" transform="matrix(0 -7.43395 -7.43474 0 23.098 45.885)"/><path d="M.467-.5h.066v1H.467z" style="fill:url(#g)" transform="matrix(10.51519 0 0 -10.51407 23.327 40.465)"/><path d="M.482.401C.201.401 0 .23 0-.045 0-.212.042-.31.062-.346l.075.024a.6.6 0 0 0-.053.265c0 .197.119.365.426.365v-.705c.016-.004.032-.004.058-.004.137 0 .432.059.432.372 0 .247-.199.43-.518.43m.44-.418c0-.231-.203-.287-.336-.285v.604C.733.286.922.194.922-.017" style="fill:url(#h);fill-rule:nonzero" transform="matrix(0 -7.43395 -7.43474 0 33.768 45.885)"/><path d="M1-.226H.58v.003c.057.03.116.102.116.217 0 .164-.138.301-.36.3C.137.294 0 .171 0 .007 0-.117.068-.196.141-.23v-.003L.015-.237v-.06c.047.003.106.006.156.006H1zM.343.227C.516.227.642.136.642-.01a.215.215 0 0 0-.225-.216H.284a.2.2 0 0 0-.055.007.22.22 0 0 0-.174.213c0 .159.138.233.288.233" style="fill:url(#i);fill-rule:nonzero" transform="matrix(0 -10.67697 -10.6781 0 41.106 45.885)"/><path d="M.936.058C.903.058.874.036.874.002c0-.038.029-.06.062-.06.035 0 .064.022.064.057C1 .033.97.058.936.058M0 .036v-.072h.728v.072z" style="fill:url(#j);fill-rule:nonzero" transform="matrix(0 -9.75886 -9.7599 0 46.963 45.722)"/><path d="m1-.196-.464.129a5 5 0 0 1-.244.055v.006C.372.01.45.027.536.051L1 .186v.338L0 .159v-.31l1-.373z" style="fill:url(#k);fill-rule:nonzero" transform="matrix(0 -7.24154 -7.2423 0 52.434 45.722)"/><path d="M.892.115C.832.115.783.071.783.002c0-.073.049-.117.109-.117.061.002.108.044.108.114S.953.115.892.115M0 .109v-.217h.698v.217z" style="fill:url(#l);fill-rule:nonzero" transform="scale(10.38207 -10.38097)rotate(90 5.015 .61)"/><path d="M.935.153H.791v.103H.613V.153H.296Q.134.153.067.086A.25.25 0 0 1 0-.096c0-.066.009-.125.021-.155l.182.001a.3.3 0 0 0-.006.072c0 .071.042.095.136.095h.28v-.173h.178v.173H1z" style="fill:url(#m);fill-rule:nonzero" transform="matrix(0 -9.34423 -9.34522 0 63.06 45.87)"/><path d="M.914.368.723.313A.54.54 0 0 0 .795.05c0-.147-.072-.174-.125-.174H.658c0 .338-.117.561-.365.561C.141.437 0 .321 0 .128c0-.113.041-.211.117-.274v-.005L.021-.169v-.268c.053.012.141.016.231.016h.334c.226 0 .414.1.414.418a.8.8 0 0 1-.086.371M.322.144c.114 0 .151-.122.151-.278H.369a.2.2 0 0 0-.051.006.165.165 0 0 0-.109.154c0 .067.037.118.113.118" style="fill:url(#n);fill-rule:nonzero" transform="matrix(0 -7.5821 -7.5829 0 69.59 45.885)"/><defs><linearGradient id="a" x1="0" x2="1" y1="0" y2="0" gradientTransform="matrix(1 0 0 -1 0 0)" gradientUnits="userSpaceOnUse"><stop offset="0" style="stop-color:#cea53a;stop-opacity:1"/><stop offset="1" style="stop-color:#dacb2a;stop-opacity:1"/></linearGradient><linearGradient id="b" x1="0" x2="1" y1="0" y2="0" gradientTransform="matrix(1 0 0 -1 0 0)" gradientUnits="userSpaceOnUse"><stop offset="0" style="stop-color:#cea53a;stop-opacity:1"/><stop offset="1" style="stop-color:#dacb2a;stop-opacity:1"/></linearGradient><linearGradient id="c" x1="0" x2="1" y1="0" y2="0" gradientTransform="matrix(1 0 0 -1 0 0)" gradientUnits="userSpaceOnUse"><stop offset="0" style="stop-color:#cea53a;stop-opacity:1"/><stop offset="1" style="stop-color:#dacb2a;stop-opacity:1"/></linearGradient><linearGradient id="d" x1="0" x2="1" y1="0" y2="0" gradientTransform="matrix(1 0 0 -1 0 0)" gradientUnits="userSpaceOnUse"><stop offset="0" style="stop-color:#cea53a;stop-opacity:1"/><stop offset="1" style="stop-color:#dacb2a;stop-opacity:1"/></linearGradient><linearGradient id="e" x1="0" x2="1" y1="0" y2="0" gradientTransform="matrix(1 0 0 -1 0 0)" gradientUnits="userSpaceOnUse"><stop offset="0" style="stop-color:#cea53a;stop-opacity:1"/><stop offset="1" style="stop-color:#dacb2a;stop-opacity:1"/></linearGradient><linearGradient id="f" x1="0" x2="1" y1="0" y2="0" gradientTransform="matrix(1 0 0 -1 0 0)" gradientUnits="userSpaceOnUse"><stop offset="0" style="stop-color:#cea53a;stop-opacity:1"/><stop offset="1" style="stop-color:#dacb2a;stop-opacity:1"/></linearGradient><linearGradient id="g" x1="0" x2="1" y1="0" y2="0" gradientTransform="matrix(0 1 1 0 .5 -.5)" gradientUnits="userSpaceOnUse"><stop offset="0" style="stop-color:#cea53a;stop-opacity:1"/><stop offset="1" style="stop-color:#dacb2a;stop-opacity:1"/></linearGradient><linearGradient id="h" x1="0" x2="1" y1="0" y2="0" gradientTransform="matrix(1 0 0 -1 0 0)" gradientUnits="userSpaceOnUse"><stop offset="0" style="stop-color:#cea53a;stop-opacity:1"/><stop offset="1" style="stop-color:#dacb2a;stop-opacity:1"/></linearGradient><linearGradient id="i" x1="0" x2="1" y1="0" y2="0" gradientTransform="matrix(1 0 0 -1 0 -.001)" gradientUnits="userSpaceOnUse"><stop offset="0" style="stop-color:#cea53a;stop-opacity:1"/><stop offset="1" style="stop-color:#dacb2a;stop-opacity:1"/></linearGradient><linearGradient id="j" x1="0" x2="1" y1="0" y2="0" gradientTransform="matrix(1 0 0 -1 0 0)" gradientUnits="userSpaceOnUse"><stop offset="0" style="stop-color:#cea53a;stop-opacity:1"/><stop offset="1" style="stop-color:#dacb2a;stop-opacity:1"/></linearGradient><linearGradient id="k" x1="0" x2="1" y1="0" y2="0" gradientTransform="matrix(1 0 0 -1 0 0)" gradientUnits="userSpaceOnUse"><stop offset="0" style="stop-color:#cea53a;stop-opacity:1"/><stop offset="1" style="stop-color:#dacb2a;stop-opacity:1"/></linearGradient><linearGradient id="l" x1="0" x2="1" y1="0" y2="0" gradientTransform="matrix(1 0 0 -1 0 0)" gradientUnits="userSpaceOnUse"><stop offset="0" style="stop-color:#cea53a;stop-opacity:1"/><stop offset="1" style="stop-color:#dacb2a;stop-opacity:1"/></linearGradient><linearGradient id="m" x1="0" x2="1" y1="0" y2="0" gradientTransform="matrix(1 0 0 -1 0 0)" gradientUnits="userSpaceOnUse"><stop offset="0" style="stop-color:#cea53a;stop-opacity:1"/><stop offset="1" style="stop-color:#dacb2a;stop-opacity:1"/></linearGradient><linearGradient id="n" x1="0" x2="1" y1="0" y2="0" gradientTransform="matrix(1 0 0 -1 0 0)" gradientUnits="userSpaceOnUse"><stop offset="0" style="stop-color:#cea53a;stop-opacity:1"/><stop offset="1" style="stop-color:#dacb2a;stop-opacity:1"/></linearGradient></defs></svg>