<svg xmlns="http://www.w3.org/2000/svg" xml:space="preserve" viewBox="0 0 1497.223 1078"><path fill="#E61C23" d="M0 0h1078v1078H0z"/><path fill="#FFF" d="M952 751H850V465h102zm-51.064-339.101c-31.248 0-56.916-25.668-56.916-56.916 0-31.248 25.668-56.915 56.916-56.915 31.248 0 56.916 25.668 56.916 56.915 0 31.248-25.667 56.916-56.916 56.916M338.133 749l-103.23-162H234v162H124V328h163.913c83.142 0 146.196 39.833 146.196 129.671 0 58.032-32.364 108.278-92.07 118.879L474.285 749zm-93.744-337H234v105h10.389c35.712 0 75.888-6.744 75.888-52.5S280.101 412 244.389 412M791 752H689v-32h-1.409c-18.031 29-53.531 41.673-87.34 41.673-85.649 0-145.942-71.573-145.942-154.405 0-82.833 59.306-153.838 144.956-153.838 33.245 0 67.734 12.39 89.734 37.747V463h102zM626.172 542.454c-41.698 0-65.927 29.863-65.927 65.363 0 36.626 24.229 64.801 65.927 64.801 41.698 0 65.928-28.175 65.928-64.801 0-35.5-24.23-65.363-65.928-65.363"/><path fill="#E61C23" d="M1497.223 758.297h-297.97v-93.8c31.069-18.54 58.301-36.788 81.705-54.741 23.403-17.948 43.067-35.702 58.999-53.262 32.248-35.309 48.375-68.45 48.375-99.422 0-14.596-3.759-26.233-11.276-34.916-7.518-8.678-17.818-13.02-30.898-13.02-13.473 0-24.111 5.576-31.92 16.718-7.813 11.147-11.716 26.187-11.716 45.124v9.764H1196.59v-2.959c0-47.344 14.073-85.663 42.23-114.957 28.151-29.294 65.065-43.941 110.744-43.941 44.69 0 80.471 11.887 107.347 35.656 26.871 23.773 40.312 55.384 40.312 94.835 0 32.156-13.315 66.725-39.946 103.713-26.631 36.986-66.383 76.097-119.247 117.323h71.312v-27.223h87.882z"/></svg>