<svg xmlns="http://www.w3.org/2000/svg" xml:space="preserve" id="Layer_1" x="0" y="0" version="1.1" viewBox="0 0 677.1 283.5"><style>.st0,.st3{fill:#fff}.st3{fill-rule:evenodd;clip-rule:evenodd}</style><g id="loghi"><path d="m314.7 190.6 12.9-99.3 52.1 59.8c1.9 2.2 3.5 4.2 5.1 6.2 1.5 1.9 2.9 3.8 4.2 5.8q0-3 .3-6.3c.3-3.3.6-5.1.9-8.5l7.1-53.2h14l-12.9 99.2-52.1-59.5c-2.4-2.7-4.2-5-5.7-6.8-1.4-1.8-2.6-3.6-3.7-5.3-.1 2.9-.6 7.5-1.4 13.6-.1.6-.1 1-.2 1.4l-6.8 53.2h-13.9v-.3zM420.8 190.6l12.6-95.4h53.5l-1.7 13.5h-38.8l-3.1 24h38.6l-1.8 13.4h-38.6l-4 30.9h38.8l-1.9 13.8h-53.7zM491.1 95.2h15.5l12.7 56.7c.3 1.9.7 3.6.9 5.1s.5 2.8.5 4.1c.8-2 1.6-3.8 2.3-5.5s1.2-2.8 1.6-3.5l30.5-60.7 16.4 61.5c.2.7.3 1.7.6 2.9.2 1.2.5 3.1.8 5.4.6-2 1.1-3.8 1.7-5.5s1-2.9 1.4-3.7l24.5-56.6h16.9l-47.2 99.2-17.2-62.4c-.1-.3-.3-1.6-.7-3.7-.3-2-.7-3.6-.9-5-.7 2.2-1.4 4.1-1.9 5.7q-.9 2.4-1.5 3.6l-31.8 61.6zM609.9 174.2l10.5-8.7c2.6 5.2 5.4 8.9 8.4 11.3 2.9 2.4 6.6 3.5 10.5 3.5 5.1 0 9.2-1.5 12.2-4.4 3.2-2.9 4.6-6.8 4.6-11.5 0-3.4-.8-6.2-2.5-8.5-1.7-2.4-4.5-4.8-8.7-7.1-.9-.6-2.2-1.2-3.8-2.3-7.1-4-11.9-7.4-14.4-10.1-1.8-1.9-3.2-4.2-4-6.8-.9-2.6-1.4-5.3-1.4-8.4 0-8.4 2.7-15.3 8-20.5 5.4-5.3 12.5-7.9 21.2-7.9 5.9 0 11 1.2 15.4 3.6s8 6 11 10.6l-9.2 8.4c-2.2-3.5-4.5-6.1-7.1-7.8s-5.5-2.5-8.7-2.5c-4.6 0-8.5 1.4-11.4 4.1s-4.4 6.3-4.4 10.6c0 5.2 4.2 10.1 12.6 14.6 2 1.1 3.6 1.9 4.8 2.6 6.5 3.7 11 7.6 13.7 11.7s4 8.9 4 14.7c0 9.1-2.9 16.2-8.7 21.5s-13.7 8-23.8 8c-6.8 0-12.6-1.6-17.4-4.6s-8.4-7.6-11.4-14.1" class="st0"/><path d="M0 141.5C0 63.4 63.4 0 141.5 0S283 63.4 283 141.5 219.6 283 141.5 283 0 219.6 0 141.5" style="fill:red"/><path d="M27.4 58h228.3L141.5 283.5z" style="fill-rule:evenodd;clip-rule:evenodd"/><path d="M86 96.6h2c4.4 0 8.4.7 8.4 6.1 0 5.3-4.3 6-8.5 6H86zm-28.8 51.9h25.4v-22.9h.4l11.4 23h30l-15.5-23.2c-1.5-2-3.1-3.2-4.3-4.3v-.6c9.6-3.2 13.8-7.8 13.8-18.6 0-18-13.7-24.8-29.8-24.8H57.2zM120.3 100.3l14.3-.7v48.9h26V99.6l14.3.7V77.1h-54.6zM180 148.5h47.8v-22.8H206V77.1h-26zM103.9 171.4c4.6 0 5.7 5.3 5.7 8.8 0 3.3-1.2 9.5-5.7 9.5s-5.7-6.2-5.7-9.5c.1-3.5 1-8.8 5.7-8.8m0-13.4c-13 0-20.6 9.6-20.6 21.8 0 12.9 7.2 22.6 20.6 22.6s20.6-9.7 20.6-22.6c0-12.1-7.6-21.8-20.6-21.8M165.8 202v-13.2l-8.4.6-7.4 1v-.5c7.6-2.4 15.2-7.7 15.2-16.4 0-10.1-9.5-15.3-18.5-15.3-13 0-18.6 5.7-19.8 18.2h15.4c.1-2.6.6-5.4 3.8-5.4 1.9 0 3.5 1.5 3.5 3.4 0 3.8-6.8 10-9.5 12.3l-17 15.3zM179.7 188.3c-4.2 0-8.5 2.7-8.5 7.2s4.3 7.1 8.5 7.1 8.5-2.6 8.5-7.1c-.1-4.6-4.4-7.2-8.5-7.2M57.4 173.1l6.7-.5V202h15.5v-43.3l-22.2.7zM198.7 158.7l-3.7 25.6c3.6-1.2 7.6-1.9 11.4-1.9 2.5 0 8.6.8 8.6 4.3 0 3.4-5 4.3-7.6 4.3-3.5 0-9.7-1.8-12.9-3.5l-1.7 11.7c4.1 2 12.7 3.5 17.2 3.5 9.2 0 20.7-5 20.7-15.6 0-8.3-6.9-13.5-14.8-13.5-2.2 0-5.9.5-7.4 2.3h-.5c.8-1.6 1.1-3.3 1.4-5h18.5v-12.1z" class="st3"/></g></svg>