<svg xmlns="http://www.w3.org/2000/svg" xml:space="preserve" viewBox="0 0 736.7 500"><path fill="#5000AA" d="m669.1 184.9 11.8-5.6L736.7 0l-89.3 28.6-129.1 94-14.2 1.6-82.5 9.2-7.5 6.5c-8.1-2.9-17.9-3.7-29.6-2.4l-32 3.6-54.2 6.1-68.5 7.6-4.8 7.2c-8.9-5.4-20.4-7.4-34.5-5.8l-1.7.2c-29.3 3.3-50.5 19.1-61.1 45L0 500l678.2-189.2 1-59.2 49-41.6-55.5-9.7z"/><g fill="#00FF96"><path d="m221.2 276.5 22.9-105.8 32.1-3.6-23.5 108.5c-2.6 12 .2 16.9 8.4 16 8.5-.9 12.9-6.6 15.5-18.7l23.5-108.5 30.4-3.4-23 106.3c-6.7 31.1-22.1 49.3-51.8 52.6l-3 .3c-29.4 3.3-38.3-12.2-31.5-43.7M338.9 160l47.6-5.3c30.8-3.4 41 10.2 33.6 44.2-7.5 34.5-25.1 51.4-57.4 55l-8 .9-11.3 52.3-31.7 3.5L338 189.2zm28.7 65.2c11.5-1.3 17.1-7.3 20.3-22.2 3.2-14.7-.1-19.3-11.6-18l-6.7.8-8.7 40.3zM436 149.2l76.4-8.5-6.6 30.7-45.1 5-6.2 28.5 39.7-4.4-6.5 30.2-39.7 4.4-6.7 31.1 45.1-5-6.6 30.7-76.4 8.5zM548.4 284.2l-1.3-53.9-9.8 1.1-12 55.4-31.7 3.5L520 168.9l1-29.2 46.7-5.2c31.5-3.5 41.7 11 35 41.7-4.5 20.9-12.7 34-24.1 42.8l1.9 61.6zm2.8-83.4c11.3-1.3 16.3-6.6 19.1-19.9 2.8-13.1 0-17.6-11.3-16.3l-7.4.8-7.8 36.2zM186.8 235.8c-10.5-5.1-17.8-8.6-15.3-20.4 2.1-9.8 6.4-14 13.6-14.8 7.8-.9 10.2 2.8 7.5 15.2l-1.5 6.9 33.6-10.7c5.1-27.7-4.4-41.8-32.2-38.7l-1.7.2c-26.5 3-44.6 18.2-50.9 47.3-5.9 27.3 4.2 35.3 22.9 44.7 16.1 8 17.6 9.5 15 21.8-2.5 11.8-5.2 15.1-13.9 16.1-7.8.9-10.3-2.3-7.6-15l1.7-8-33.6 10.8c-5.7 28.8 2.8 43 31.6 39.8l3-.3c28.9-3.2 44.4-19.1 50.9-49.5 6.6-30-3.4-35.7-23.1-45.4"/></g><path fill="#FF0082" d="m596.1 221.8 17.8 21.9-16.3 35.1 37.3-18.5 26.5 18.1.6-34.9 26.7-22.7-30.3-5.2-7.3-31.3-23.3 32.6z"/><path fill="#F0FF46" d="m662.6 42-24.5 132.8 28.9-9.2 43.2-138.9z"/></svg>