<svg xmlns="http://www.w3.org/2000/svg" xmlns:xlink="http://www.w3.org/1999/xlink" width="48.65" height="48.959"><defs><linearGradient id="a" x2="1" y1=".483" y2=".483" gradientUnits="objectBoundingBox"><stop offset="0" stop-color="#2aac75"/><stop offset="1" stop-color="#1b5a9c"/></linearGradient><linearGradient xlink:href="#a" id="d" x1="0" x2="1" y1=".5" y2=".5"/><clipPath id="b"><path fill="none" d="M2.767.31c.36 7.772.217 18.815-2.347 24.994a4.1 4.1 0 0 0 1.368.5c3.432.457 7.781-2.544 12.1-6.853-.827-2.668-.568-4.98-.778-5.446-.138-.3-.456-.111-.7.08-.191.149-.334.3-.309.21.833-2.827.179-3.261.179-3.261-.251-.253-.682-.052-1.013.151-.3.182-.516.366-.442.209.441-1.185.8-3.872.06-4.332-.342-.21-.717.007-1.009.223-.246.183-.433.366-.489.291.2-3.537-1.028-3.678-1.028-3.678-.477-.042-.821 1.207-.893 1.26C6.253-1.226 5.52.821 5.52.821s-.6 4.667-.58 4.173C4.189.816 3.52.041 3.132.041c-.229 0-.364.269-.364.269" data-name="Clip 18"/></clipPath><clipPath id="c"><path fill="none" d="M7.266 6.772c-.814 1.485-1.709 3.435-2 4.026.683-2.763.542-4.4.452-9.075-3.576 5.909-1.515 8.366-.806 9.9-.5 1.149-.972 2.6-1.049 2.839-.26-1.976-1.92-4.094-3.1-8.531C-.86 12.049 2.129 15.11 3.394 16.24l-.115.5c-.033.171-.073.382-.112.627 0 .03-.009.059-.014.09 0 .032-.01.067-.014.1l-.038.267a16.5 16.5 0 0 0-.081 3.566 22 22 0 0 0-1.638 1.968 5.8 5.8 0 0 1 1.906-.237 10.3 10.3 0 0 0 1.875 4.1l.181.224.023.026a7 7 0 0 0 .511.538.3.3 0 0 0 .042.038c.1.08.168.12.19.111l.008-.007c.006-.015-.007-.051-.049-.115a14.3 14.3 0 0 1-1.8-4.758c2.346.714 3.523 3.554 4.811 7.007 1.447 3.879 3.035 8.526 6.584 11.8a12 12 0 0 0 1.511 1.217c6.327 4.341 16.1 2.7 16.758 2.6a18.5 18.5 0 0 0 7.783 2.094h.009c1.209 0 1.909-.237 1.937-.477.305-.482-1.763-1.445-1.763-1.445s2.643.688 2.643-.034c0-.723-1.8-1.274-1.694-1.377a2 2 0 0 1 .565-.006c.723.028 1.875.056 1.875-.476.069-1.067-1.525-1.41-1.525-1.41s2.169-.068 2.2-.86c0-1.067-2.3-.861-1.592-1.377 2.609-1.411-.136-1.79-3.865-1.376a24.4 24.4 0 0 1-7.027-.5c-.949-.22-1.348-.435-.7-.5 1.2-.12 5.2-2.5 8.27-6.7q.081-.111.162-.226.552-.774 1.049-1.625a29.3 29.3 0 0 0 1.936-4.591c.529-1.195 1.745-1.456 1.94-2.442.09-.629-1.291-.345-1.087-.482 2.746-1.859 2.2-2.753 2.2-2.753-.066-.517-.874-.5-1.318-.491-.236.007-.37.014-.24-.058 1.152-.448 3.185-3.406 2.982-4.4-.2-1-1.526-.55-1.526-.792 2.645-3.235 1.594-3.991 1.594-3.991-.273-.447-1.594.586-1.695.586 3.017-6.264.881-5 .881-5s-3.8 4.038-3.435 3.579c3.525-7.157 1.266-5.964 1.266-5.964a121 121 0 0 1-13.15 16.844c-4.386 4.49-8.792 7.608-12.249 7.106a4.1 4.1 0 0 1-1.371-.538c-4.234-2.484-8.223-11.97-15.137-5.651l.057-1.018a19 19 0 0 1 .141-2.159c.046-.375.1-.757.172-1.146 1.761-.224 4.869-.124 7.682-6.935-4.115 2.912-5.55 3.767-7.575 6.299a5 5 0 0 1 .139-.629c.31-1.289 1-3.284 1.206-3.874l.019-.043c1.526-.218 5.096-1.154 7.196-5.965a43.4 43.4 0 0 0-6.484 4.337c.107-.247 1.21-2.373 1.21-2.373C9.703 6.256 9.87 4.587 12.24.11c-4.72 3.117-4.936 5.6-4.974 6.662" data-name="Clip 21"/></clipPath></defs><g data-name="Group 23"><g data-name="Group 19"><path fill="none" d="M20.479.269c.36 7.772.217 18.815-2.347 24.994a4.1 4.1 0 0 0 1.368.5c3.432.457 7.781-2.544 12.1-6.853-.827-2.668-.568-4.98-.778-5.446-.138-.3-.456-.111-.7.08-.191.149-.334.3-.309.21.833-2.827.179-3.261.179-3.261-.251-.253-.682-.052-1.013.151-.3.182-.516.366-.442.209.441-1.185.8-3.872.06-4.332-.342-.21-.717.007-1.009.223-.246.183-.433.366-.489.291.2-3.537-1.028-3.678-1.028-3.678-.477-.042-.821 1.207-.893 1.26C23.965-1.267 23.232.78 23.232.78s-.6 4.667-.58 4.173C21.901.775 21.232 0 20.844 0c-.229 0-.364.269-.364.269" data-name="Clip 18"/><g clip-path="url(#b)" data-name="Group 19" transform="translate(17.712 -.041)"><path fill="url(#a)" d="M2.347.269c.36 7.772.217 18.815-2.347 24.994a4.1 4.1 0 0 0 1.368.5c3.432.457 7.781-2.544 12.1-6.853-.827-2.668-.568-4.98-.778-5.446-.138-.3-.456-.111-.7.08-.191.149-.334.3-.309.21.833-2.827.179-3.261.179-3.261-.251-.253-.682-.052-1.013.151-.3.182-.516.366-.442.209.441-1.185.8-3.872.06-4.332-.342-.21-.717.007-1.009.223-.246.183-.433.366-.489.291.2-3.537-1.028-3.678-1.028-3.678-.477-.042-.821 1.207-.893 1.26C5.833-1.267 5.1.78 5.1.78s-.6 4.667-.58 4.173C3.769.775 3.1 0 2.712 0c-.229 0-.364.269-.364.269" data-name="Fill 17" transform="translate(.42 .041)"/></g></g><g data-name="Group 22"><path fill="none" d="M6.978 6.731c-.814 1.485-1.709 3.435-2 4.026.683-2.763.542-4.4.452-9.075-3.576 5.909-1.515 8.366-.806 9.9-.5 1.149-.972 2.6-1.049 2.839-.26-1.976-1.92-4.094-3.1-8.531-1.623 6.118 1.366 9.179 2.631 10.309l-.115.5q-.051.258-.112.627c0 .03-.009.059-.014.09 0 .032-.01.067-.014.1l-.038.267a16.5 16.5 0 0 0-.081 3.566 22 22 0 0 0-1.638 1.968A5.8 5.8 0 0 1 3 23.08a10.3 10.3 0 0 0 1.875 4.1l.181.224.023.026a7 7 0 0 0 .511.538.3.3 0 0 0 .042.038c.1.08.168.12.19.111l.008-.007c.006-.015-.007-.051-.049-.115a14.3 14.3 0 0 1-1.8-4.758c2.346.714 3.523 3.554 4.811 7.007 1.447 3.879 3.035 8.526 6.584 11.8a12 12 0 0 0 1.511 1.217c6.327 4.341 16.1 2.7 16.758 2.6a18.5 18.5 0 0 0 7.783 2.094h.009c1.209 0 1.909-.237 1.937-.477.305-.482-1.763-1.445-1.763-1.445s2.643.688 2.643-.034c0-.723-1.8-1.274-1.694-1.377a2 2 0 0 1 .565-.006c.723.028 1.875.056 1.875-.476.069-1.067-1.525-1.41-1.525-1.41s2.169-.068 2.2-.86c0-1.067-2.3-.861-1.592-1.377 2.609-1.411-.136-1.79-3.865-1.376a24.4 24.4 0 0 1-7.027-.5c-.949-.22-1.348-.435-.7-.5 1.2-.12 5.2-2.5 8.27-6.7q.081-.111.162-.226.552-.774 1.049-1.625a29.3 29.3 0 0 0 1.936-4.591c.529-1.195 1.745-1.456 1.94-2.442.09-.629-1.291-.345-1.087-.482 2.746-1.859 2.2-2.753 2.2-2.753-.066-.517-.874-.5-1.318-.491-.236.007-.37.014-.24-.058 1.152-.448 3.185-3.406 2.982-4.4-.2-1-1.526-.55-1.526-.792 2.645-3.235 1.594-3.991 1.594-3.991-.273-.447-1.594.586-1.695.586 3.017-6.264.881-5 .881-5s-3.8 4.038-3.435 3.579c3.525-7.157 1.266-5.964 1.266-5.964a121 121 0 0 1-13.15 16.844c-4.386 4.49-8.792 7.608-12.249 7.106a4.1 4.1 0 0 1-1.371-.538c-4.234-2.484-8.223-11.97-15.137-5.651l.057-1.018a19 19 0 0 1 .141-2.159c.046-.375.1-.757.172-1.146 1.761-.224 4.869-.124 7.682-6.935-4.115 2.912-5.55 3.767-7.575 6.299a5 5 0 0 1 .139-.629c.31-1.289 1-3.284 1.206-3.874l.019-.043C6.93 10.805 10.5 9.869 12.6 5.058a43.4 43.4 0 0 0-6.484 4.337c.107-.247 1.21-2.373 1.21-2.373 2.089-.807 2.256-2.476 4.626-6.953-4.72 3.117-4.936 5.6-4.974 6.662" data-name="Clip 21"/><g clip-path="url(#c)" data-name="Group 22" transform="translate(-.288 -.041)"><path fill="url(#d)" d="M6.978 6.662c-.814 1.485-1.709 3.435-2 4.026.683-2.763.542-4.4.452-9.075-3.576 5.909-1.515 8.366-.806 9.9-.5 1.149-.972 2.6-1.049 2.839-.26-1.976-1.92-4.094-3.1-8.531C-1.148 11.939 1.841 15 3.106 16.13l-.115.5q-.051.258-.112.627c0 .03-.009.059-.014.09 0 .032-.01.067-.014.1l-.038.267a16.5 16.5 0 0 0-.081 3.566 22 22 0 0 0-1.638 1.968A5.8 5.8 0 0 1 3 23.011a10.3 10.3 0 0 0 1.875 4.1l.181.224.023.026a7 7 0 0 0 .511.538.3.3 0 0 0 .042.038c.1.08.168.12.19.111l.008-.007c.006-.015-.007-.051-.049-.115a14.3 14.3 0 0 1-1.8-4.758c2.346.714 3.523 3.554 4.811 7.007 1.447 3.879 3.035 8.526 6.584 11.8a12 12 0 0 0 1.511 1.217c6.327 4.341 16.1 2.7 16.758 2.6a18.5 18.5 0 0 0 7.783 2.094h.009c1.209 0 1.909-.237 1.937-.477.305-.482-1.763-1.445-1.763-1.445s2.643.688 2.643-.034c0-.723-1.8-1.274-1.694-1.377a2 2 0 0 1 .565-.006c.723.028 1.875.056 1.875-.476.069-1.067-1.525-1.41-1.525-1.41s2.169-.068 2.2-.86c0-1.067-2.3-.861-1.592-1.377 2.609-1.411-.136-1.79-3.865-1.376a24.4 24.4 0 0 1-7.027-.5c-.949-.22-1.348-.435-.7-.5 1.2-.12 5.2-2.5 8.27-6.7q.081-.111.162-.226.552-.774 1.049-1.625a29.3 29.3 0 0 0 1.936-4.591c.529-1.195 1.745-1.456 1.94-2.442.09-.629-1.291-.345-1.087-.482 2.746-1.859 2.2-2.753 2.2-2.753-.066-.517-.874-.5-1.318-.491-.236.007-.37.014-.24-.058 1.152-.448 3.185-3.406 2.982-4.4-.2-1-1.526-.55-1.526-.792 2.645-3.235 1.594-3.991 1.594-3.991-.273-.447-1.594.586-1.695.586 3.017-6.264.881-5 .881-5s-3.8 4.038-3.435 3.579c3.525-7.157 1.266-5.964 1.266-5.964a121 121 0 0 1-13.15 16.844c-4.386 4.49-8.792 7.608-12.249 7.106a4.1 4.1 0 0 1-1.371-.538c-4.234-2.484-8.223-11.97-15.137-5.651l.057-1.018a19 19 0 0 1 .141-2.159c.046-.375.1-.757.172-1.146 1.761-.224 4.869-.124 7.682-6.935C7.5 12.113 6.065 12.968 4.04 15.5a5 5 0 0 1 .139-.629c.31-1.289 1-3.284 1.206-3.874l.019-.043C6.93 10.736 10.5 9.8 12.6 4.989a43.4 43.4 0 0 0-6.484 4.337c.107-.247 1.21-2.373 1.21-2.373C9.415 6.146 9.582 4.477 11.952 0c-4.72 3.117-4.936 5.6-4.974 6.662" data-name="Fill 20" transform="translate(.288 .11)"/></g></g></g></svg>