<svg xmlns="http://www.w3.org/2000/svg" xml:space="preserve" width="328.73" height="500"><path fill="#FFF" d="M140.204 153.134h-22.858a7.606 7.606 0 0 1-5.389-2.241 7.67 7.67 0 0 1-2.232-5.411 7.67 7.67 0 0 1 2.232-5.411 7.606 7.606 0 0 1 5.389-2.241h60.957c2.021 0 3.96.806 5.389 2.241 1.429 1.435 2.232 3.382 2.232 5.411s-.803 3.976-2.232 5.411a7.606 7.606 0 0 1-5.389 2.241h-22.858v84.148c0 2.03-.803 3.976-2.232 5.411a7.606 7.606 0 0 1-5.389 2.241c-2.021 0-3.96-.806-5.389-2.241s-2.232-3.382-2.232-5.411v-84.148zM195.522 147.931c-1.37-4.133.611-8.415 4.722-9.642 4.116-1.376 8.38.614 9.603 4.742l23.316 70.09 23.316-70.07c1.222-4.128 5.486-6.118 9.602-4.742 4.116 1.223 6.098 5.509 4.722 9.643l-30.479 91.795a10.452 10.452 0 0 1-1.523 2.604c-1.065 1.376-2.741 2.599-5.639 2.599s-4.57-1.223-5.639-2.599a10.76 10.76 0 0 1-1.523-2.604zM4.57 364.497a4.483 4.483 0 0 1-4.244-2.824 4.519 4.519 0 0 1-.325-1.771 4.303 4.303 0 0 1 1.065-2.903l44.503-53.87c3.505-4.282 6.246-9.182 6.246-15.146a21.467 21.467 0 0 0-6.249-15.149 21.288 21.288 0 0 0-15.086-6.275 21.29 21.29 0 0 0-15.086 6.275 21.467 21.467 0 0 0-6.249 15.149c.011.605-.1 1.207-.327 1.768a4.495 4.495 0 0 1-4.248 2.821A4.503 4.503 0 0 1 0 287.983a30.662 30.662 0 0 1 8.931-21.633 30.407 30.407 0 0 1 21.548-8.957c16.612 0 30.479 13.929 30.479 30.61 0 8.569-3.658 15.608-8.991 21.577l-37.641 45.735h42.063a4.565 4.565 0 0 1 3.137 1.398 4.601 4.601 0 0 1 1.287 3.193 4.613 4.613 0 0 1-1.287 3.196 4.566 4.566 0 0 1-3.137 1.395zM131.06 333.887a30.73 30.73 0 0 1-2.319 11.721 30.646 30.646 0 0 1-6.611 9.934 30.447 30.447 0 0 1-9.896 6.633 30.333 30.333 0 0 1-11.672 2.323c-17.071 0-30.479-13.47-30.479-30.611v-45.903a30.658 30.658 0 0 1 8.931-21.633 30.407 30.407 0 0 1 21.548-8.957c16.612 0 30.479 13.929 30.479 30.61zm-9.145-45.904a21.467 21.467 0 0 0-6.249-15.149 21.294 21.294 0 0 0-15.086-6.275 21.29 21.29 0 0 0-15.086 6.275 21.468 21.468 0 0 0-6.249 15.149v45.903a21.467 21.467 0 0 0 6.249 15.149 21.292 21.292 0 0 0 15.086 6.273 21.296 21.296 0 0 0 15.086-6.273 21.468 21.468 0 0 0 6.249-15.149zM201.161 333.887c.001 4.019-.786 8-2.317 11.715-1.531 3.713-3.776 7.088-6.607 9.931s-6.191 5.097-9.889 6.635a30.356 30.356 0 0 1-11.665 2.329c-17.071 0-30.479-13.467-30.479-30.611v-45.903a30.658 30.658 0 0 1 8.931-21.633 30.407 30.407 0 0 1 21.548-8.957c16.612 0 30.479 13.929 30.479 30.61v45.884zm-9.144-45.904a21.467 21.467 0 0 0-6.249-15.149 21.292 21.292 0 0 0-15.086-6.275 21.29 21.29 0 0 0-15.086 6.275 21.468 21.468 0 0 0-6.249 15.149v45.903a21.467 21.467 0 0 0 6.249 15.149 21.292 21.292 0 0 0 15.086 6.273 21.296 21.296 0 0 0 15.086-6.273 21.468 21.468 0 0 0 6.249-15.149zM271.263 333.887c.001 4.019-.786 8-2.317 11.715-1.531 3.713-3.776 7.088-6.606 9.931s-6.191 5.097-9.889 6.635a30.365 30.365 0 0 1-11.666 2.329c-17.07 0-30.484-13.467-30.484-30.611v-45.903a30.72 30.72 0 0 1 2.323-11.71 30.603 30.603 0 0 1 6.609-9.925 30.483 30.483 0 0 1 9.889-6.63 30.36 30.36 0 0 1 11.662-2.326c16.607 0 30.479 13.929 30.479 30.61zm-9.145-45.904a21.46 21.46 0 0 0-6.134-15.363 21.339 21.339 0 0 0-6.962-4.729 21.266 21.266 0 0 0-16.482 0 21.344 21.344 0 0 0-6.962 4.729 21.453 21.453 0 0 0-4.603 7.062 21.512 21.512 0 0 0-1.53 8.301v45.903a21.509 21.509 0 0 0 1.53 8.301 21.439 21.439 0 0 0 4.603 7.061 21.308 21.308 0 0 0 15.203 6.392 21.313 21.313 0 0 0 15.203-6.392 21.415 21.415 0 0 0 4.604-7.061 21.512 21.512 0 0 0 1.53-8.301z"/><path fill="#FFF" d="M328.73 250.002c0-92.186-27.014-178.036-73.518-250.002a776.358 776.358 0 0 1 41.048 250.002A776.421 776.421 0 0 1 255.193 500c46.523-71.967 73.537-157.818 73.537-249.998"/></svg>