<svg xmlns="http://www.w3.org/2000/svg" width="289.066" height="290.844"><path fill="#FFF" fill-rule="evenodd" stroke-miterlimit="10" d="M241.531 40.1c-16.527-3.066-30.404-5.55-30.84-5.522-4.087.267-59.554 11.181-60.041 11.813-.343.445-1.159 3.34-1.815 6.431-1.4 6.608-.424 5.897-12.524 9.132-12.999 3.476-11.819 2.658-13.44 9.316-1.949 8.01-1.062 7.288-12.631 10.265-13.341 3.432-12.047 2.414-13.395 10.53-2.524 15.192-1.472 46.6 2.266 67.652 11.187 63.01 48.338 121.04 102.128 159.52 10.671 7.634 9.386 7.296 14.603 3.84 26.222-17.375 52.972-44.46 70.98-71.87l2.281-3.47 2.895 3.47c31.683 37.99 92.584 15.958 92.535-33.475-.031-31.248-26.216-54.984-57.211-51.86-6.024.608-5.453 1.377-4.117-5.545 4.432-22.964 5.324-52.116 2.136-69.857-1.1-6.117-.202-5.5-12.909-8.87l-10.875-2.885-1.646-6.563c-1.99-7.93-.21-6.528-12.482-9.84-5.695-1.538-10.807-2.932-11.361-3.099-.712-.214-1.408-2.072-2.375-6.337-.753-3.319-1.536-6.297-1.742-6.618-.205-.322-13.894-3.093-30.42-6.158m-48.289 31.083c3.115-.624 6.558-1.158 7.649-1.186l1.985-.05v107.48c0 71.068-.206 107.48-.609 107.48-.335 0-2.408-2.267-4.607-5.038-11.857-14.944-20.921-32.02-28.332-53.38l-3.425-9.87-6.704 4.213c-8.756 5.503-9.534 5.436-13.112-1.119-12.871-23.585-25.039-71.613-25.042-98.854l-.001-5.575 4.486-5.112c5.457-6.219 10.617-11.087 11.303-10.663.279.172.682 6.026.897 13.01.975 31.733 6.728 62.607 15.652 83.992 2.16 5.176 2.678 5.478 5.746 3.358 1.823-1.26 1.949-1.55 1.509-3.51-5.156-22.966-7.804-49.81-8.262-83.76l-.343-25.439 3.284-1.912c4.444-2.587 13.418-6.9 13.721-6.597.136.136.381 9.98.546 21.877.71 51.24 4.911 85.917 14.105 116.441 2.201 7.306 2.879 6.548 2.458-2.749-.194-4.282-.522-37.78-.729-74.442l-.376-66.657 1.268-.402c.697-.222 3.817-.913 6.933-1.536m26.733 106.244V69.947h2.117c12.138 0 33.255 5.792 44.614 12.237 21.769 12.354 27.323 38.613 12.104 57.227-1.335 1.633-1.804 2.596-1.263 2.596 2.165 0 8.518 3.946 11.36 7.056 5.071 5.548 7.211 14.155 6.146 24.717-.749 7.43-1.037 8.273-4.291 12.572-5.385 7.115-10.309 19.634-10.324 26.25-.009 3.777-12.344 21.585-26.186 37.802-5.602 6.564-32.955 34.503-33.779 34.503-.274 0-.498-48.366-.498-107.48m26.101-86.114c-2.767-.663-5.925-1.208-7.017-1.21l-1.984-.005v31.516c0 27.734.109 31.474.914 31.165 4.092-1.57 18.104-12.583 22.204-17.452 16.323-19.384 10.301-38.16-14.117-44.014m27.034 70.097c-5.04-5.04-12.624-3.085-28.249 7.283l-7.786 5.167v34.224c0 30.913.092 34.15.951 33.436.523-.434 3.372-3.697 6.331-7.25 27.426-32.936 39.099-62.514 28.753-72.86m24.423 40.75v-5.802H338.27l2.263 7.175c1.245 3.947 2.874 9.057 3.62 11.355l1.357 4.18 3.512-11.172c4.193-13.333 2.495-11.61 11.24-11.405l7.322.172-7.743 21.374-7.743 21.374h-13.215l-3.161-8.549a5202.613 5202.613 0 0 1-5.78-15.726l-2.619-7.175h-7.806v31.756h-14.045v-31.756h-7.939z" data-paper-data="{&quot;isPaintingLayer&quot;:true}" style="mix-blend-mode:normal" transform="translate(-95.467 -34.578)"/></svg>